<svg width="25" height="25" viewBox="0 0 25 25" fill="none" xmlns="http://www.w3.org/2000/svg">
<path fill-rule="evenodd" clip-rule="evenodd" d="M7.63078 2.61865H16.9608C20.3608 2.61865 22.3008 4.49377 22.3008 7.82406V16.9457C22.3008 20.2565 20.3708 22.1511 16.9708 22.1511H7.63078C4.22078 22.1511 2.30078 20.2565 2.30078 16.9457V7.82406C2.30078 4.49377 4.22078 2.61865 7.63078 2.61865ZM13.1207 13.1955H15.9607C16.4207 13.1857 16.7907 12.8243 16.7907 12.3751C16.7907 11.9258 16.4207 11.5645 15.9607 11.5645H13.1207V8.81041C13.1207 8.36117 12.7507 7.99981 12.2907 7.99981C11.8307 7.99981 11.4607 8.36117 11.4607 8.81041V11.5645H8.6307C8.4107 11.5645 8.2007 11.6524 8.0407 11.7989C7.8907 11.9551 7.8007 12.1593 7.8007 12.3751C7.8007 12.8243 8.1707 13.1857 8.6307 13.1955H11.4607V15.9593C11.4607 16.4086 11.8307 16.7699 12.2907 16.7699C12.7507 16.7699 13.1207 16.4086 13.1207 15.9593V13.1955Z" fill="#FF5722"/>
</svg>
