<svg width="27" height="28" viewBox="0 0 27 28" fill="none" xmlns="http://www.w3.org/2000/svg">
<path d="M9.65703 11.3314C10.3224 11.3314 10.9604 11.0671 11.4309 10.5966C11.9013 10.1262 12.1656 9.48812 12.1656 8.8228C12.1656 8.15748 11.9013 7.51941 11.4309 7.04896C10.9604 6.57851 10.3224 6.31421 9.65703 6.31421C8.99171 6.31421 8.35364 6.57851 7.88319 7.04896C7.41273 7.51941 7.14844 8.15748 7.14844 8.8228C7.14844 9.48812 7.41273 10.1262 7.88319 10.5966C8.35364 11.0671 8.99171 11.3314 9.65703 11.3314Z" stroke="#979797" stroke-width="1.5" stroke-linecap="round" stroke-linejoin="round"/>
<path d="M14.6742 1.297H9.65703C3.38555 1.297 0.876953 3.80559 0.876953 10.0771V17.6029C0.876953 23.8743 3.38555 26.3829 9.65703 26.3829H17.1828C23.4543 26.3829 25.9629 23.8743 25.9629 17.6029V11.3314" stroke="#979797" stroke-width="1.5" stroke-linecap="round" stroke-linejoin="round"/>
<path d="M18.1235 5.05991H25.0222M21.5729 8.50923V1.6106" stroke="#979797" stroke-width="1.5" stroke-linecap="round"/>
<path d="M1.71729 22.5574L7.90097 18.4057C8.89186 17.7409 10.3218 17.8162 11.2123 18.5813L11.6262 18.945C12.6046 19.7854 14.185 19.7854 15.1633 18.945L20.3812 14.4672C21.3596 13.6268 22.94 13.6268 23.9183 14.4672L25.9628 16.2232" stroke="#979797" stroke-width="1.5" stroke-linecap="round" stroke-linejoin="round"/>
</svg>
