<svg width="111" height="111" viewBox="0 0 111 111" fill="none" xmlns="http://www.w3.org/2000/svg">
<rect x="0.652344" y="1.48535" width="109" height="109" rx="54.5" fill="#F21515" stroke="#D0CACA"/>
<path d="M49.625 73.6218C49.625 72.8603 49.775 72.1062 50.0664 71.4026C50.3578 70.6991 50.785 70.0598 51.3235 69.5213C51.862 68.9828 52.5012 68.5557 53.2048 68.2643C53.9084 67.9728 54.6624 67.8228 55.424 67.8228C56.1855 67.8228 56.9396 67.9728 57.6431 68.2643C58.3467 68.5557 58.986 68.9828 59.5245 69.5213C60.063 70.0598 60.4901 70.6991 60.7815 71.4026C61.073 72.1062 61.2229 72.8603 61.2229 73.6218C61.2229 75.1598 60.612 76.6348 59.5245 77.7223C58.4369 78.8098 56.962 79.4208 55.424 79.4208C53.886 79.4208 52.411 78.8098 51.3235 77.7223C50.236 76.6348 49.625 75.1598 49.625 73.6218ZM50.1933 38.799C50.1161 38.0674 50.1935 37.3277 50.4206 36.628C50.6477 35.9283 51.0194 35.2841 51.5115 34.7373C52.0036 34.1905 52.6052 33.7533 53.2773 33.454C53.9493 33.1547 54.6767 33 55.4124 33C56.148 33 56.8755 33.1547 57.5475 33.454C58.2195 33.7533 58.8211 34.1905 59.3132 34.7373C59.8054 35.2841 60.177 35.9283 60.4041 36.628C60.6312 37.3277 60.7087 38.0674 60.6315 38.799L58.6018 59.136C58.5194 59.9244 58.1478 60.6544 57.5588 61.185C56.9698 61.7156 56.2051 62.0092 55.4124 62.0092C54.6196 62.0092 53.855 61.7156 53.266 61.185C52.677 60.6544 52.3054 59.9244 52.2229 59.136L50.1933 38.799Z" fill="white"/>
</svg>
