<svg width="350" height="195" viewBox="0 0 350 195" fill="none" xmlns="http://www.w3.org/2000/svg">
<rect x="0.5" y="0.5" width="349" height="194" rx="29.5" fill="white" stroke="#DADADA"/>
<path d="M110.239 139.924V129.494H114.621C115.209 129.494 115.718 129.606 116.147 129.83C116.586 130.045 116.922 130.348 117.155 130.74C117.398 131.132 117.519 131.589 117.519 132.112C117.519 132.653 117.384 133.134 117.113 133.554C116.852 133.965 116.474 134.277 115.979 134.492L115.965 134.156C116.376 134.305 116.726 134.515 117.015 134.786C117.314 135.057 117.542 135.374 117.701 135.738C117.86 136.093 117.939 136.475 117.939 136.886C117.939 137.819 117.64 138.561 117.043 139.112C116.455 139.653 115.652 139.924 114.635 139.924H110.239ZM111.359 138.874H114.635C115.298 138.874 115.825 138.701 116.217 138.356C116.618 138.001 116.819 137.516 116.819 136.9C116.819 136.293 116.618 135.813 116.217 135.458C115.825 135.094 115.298 134.912 114.635 134.912H111.359V138.874ZM111.359 133.904H114.537C115.097 133.904 115.545 133.741 115.881 133.414C116.226 133.087 116.399 132.667 116.399 132.154C116.399 131.631 116.226 131.235 115.881 130.964C115.545 130.684 115.097 130.544 114.537 130.544H111.359V133.904ZM121.962 140.092C121.486 140.092 121.061 140.003 120.688 139.826C120.315 139.639 120.021 139.387 119.806 139.07C119.591 138.753 119.484 138.389 119.484 137.978C119.484 137.586 119.568 137.231 119.736 136.914C119.904 136.587 120.165 136.312 120.52 136.088C120.875 135.864 121.327 135.705 121.878 135.612L124.818 135.122V136.074L122.13 136.522C121.589 136.615 121.197 136.788 120.954 137.04C120.721 137.292 120.604 137.591 120.604 137.936C120.604 138.272 120.735 138.557 120.996 138.79C121.267 139.023 121.612 139.14 122.032 139.14C122.545 139.14 122.993 139.033 123.376 138.818C123.759 138.594 124.057 138.295 124.272 137.922C124.487 137.549 124.594 137.133 124.594 136.676V134.772C124.594 134.324 124.431 133.96 124.104 133.68C123.777 133.4 123.353 133.26 122.83 133.26C122.373 133.26 121.971 133.377 121.626 133.61C121.281 133.834 121.024 134.128 120.856 134.492L119.904 133.974C120.044 133.657 120.263 133.367 120.562 133.106C120.87 132.845 121.22 132.639 121.612 132.49C122.004 132.331 122.41 132.252 122.83 132.252C123.381 132.252 123.866 132.359 124.286 132.574C124.715 132.789 125.047 133.087 125.28 133.47C125.523 133.843 125.644 134.277 125.644 134.772V139.924H124.594V138.426L124.748 138.58C124.617 138.86 124.412 139.117 124.132 139.35C123.861 139.574 123.539 139.756 123.166 139.896C122.802 140.027 122.401 140.092 121.962 140.092ZM131.234 140.092C130.496 140.092 129.848 139.919 129.288 139.574C128.728 139.229 128.289 138.762 127.972 138.174C127.654 137.577 127.496 136.905 127.496 136.158C127.496 135.411 127.654 134.744 127.972 134.156C128.289 133.568 128.728 133.106 129.288 132.77C129.848 132.425 130.496 132.252 131.234 132.252C131.7 132.252 132.139 132.336 132.55 132.504C132.96 132.672 133.324 132.901 133.642 133.19C133.959 133.47 134.197 133.797 134.356 134.17L133.404 134.66C133.217 134.259 132.932 133.932 132.55 133.68C132.167 133.428 131.728 133.302 131.234 133.302C130.739 133.302 130.291 133.428 129.89 133.68C129.498 133.923 129.185 134.263 128.952 134.702C128.728 135.131 128.616 135.621 128.616 136.172C128.616 136.713 128.728 137.203 128.952 137.642C129.185 138.071 129.498 138.412 129.89 138.664C130.291 138.916 130.739 139.042 131.234 139.042C131.728 139.042 132.162 138.916 132.536 138.664C132.918 138.412 133.208 138.076 133.404 137.656L134.356 138.174C134.197 138.538 133.959 138.865 133.642 139.154C133.324 139.443 132.96 139.672 132.55 139.84C132.139 140.008 131.7 140.092 131.234 140.092ZM136.198 139.924V129.326H137.248V136.746L136.8 136.676L141.014 132.42H142.372L139.432 135.43L142.638 139.924H141.378L138.368 135.766L139.04 135.822L136.898 138.034L137.248 137.166V139.924H136.198ZM146.401 139.924V129.494H147.521V139.924H146.401ZM149.983 139.924V129.494H153.413C154.449 129.494 155.35 129.709 156.115 130.138C156.88 130.558 157.473 131.16 157.893 131.944C158.313 132.719 158.523 133.638 158.523 134.702C158.523 135.757 158.313 136.676 157.893 137.46C157.473 138.244 156.88 138.851 156.115 139.28C155.35 139.709 154.449 139.924 153.413 139.924H149.983ZM151.103 138.874H153.413C154.216 138.874 154.911 138.706 155.499 138.37C156.087 138.025 156.54 137.539 156.857 136.914C157.184 136.289 157.347 135.551 157.347 134.702C157.347 133.853 157.184 133.12 156.857 132.504C156.53 131.879 156.073 131.398 155.485 131.062C154.897 130.717 154.206 130.544 153.413 130.544H151.103V138.874ZM166.029 140.092C165.291 140.092 164.643 139.919 164.083 139.574C163.523 139.229 163.084 138.762 162.767 138.174C162.449 137.577 162.291 136.905 162.291 136.158C162.291 135.411 162.449 134.744 162.767 134.156C163.084 133.568 163.523 133.106 164.083 132.77C164.643 132.425 165.291 132.252 166.029 132.252C166.495 132.252 166.934 132.336 167.345 132.504C167.755 132.672 168.119 132.901 168.437 133.19C168.754 133.47 168.992 133.797 169.151 134.17L168.199 134.66C168.012 134.259 167.727 133.932 167.345 133.68C166.962 133.428 166.523 133.302 166.029 133.302C165.534 133.302 165.086 133.428 164.685 133.68C164.293 133.923 163.98 134.263 163.747 134.702C163.523 135.131 163.411 135.621 163.411 136.172C163.411 136.713 163.523 137.203 163.747 137.642C163.98 138.071 164.293 138.412 164.685 138.664C165.086 138.916 165.534 139.042 166.029 139.042C166.523 139.042 166.957 138.916 167.331 138.664C167.713 138.412 168.003 138.076 168.199 137.656L169.151 138.174C168.992 138.538 168.754 138.865 168.437 139.154C168.119 139.443 167.755 139.672 167.345 139.84C166.934 140.008 166.495 140.092 166.029 140.092ZM173.026 140.092C172.55 140.092 172.126 140.003 171.752 139.826C171.379 139.639 171.085 139.387 170.87 139.07C170.656 138.753 170.548 138.389 170.548 137.978C170.548 137.586 170.632 137.231 170.8 136.914C170.968 136.587 171.23 136.312 171.584 136.088C171.939 135.864 172.392 135.705 172.942 135.612L175.882 135.122V136.074L173.194 136.522C172.653 136.615 172.261 136.788 172.018 137.04C171.785 137.292 171.668 137.591 171.668 137.936C171.668 138.272 171.799 138.557 172.06 138.79C172.331 139.023 172.676 139.14 173.096 139.14C173.61 139.14 174.058 139.033 174.44 138.818C174.823 138.594 175.122 138.295 175.336 137.922C175.551 137.549 175.658 137.133 175.658 136.676V134.772C175.658 134.324 175.495 133.96 175.168 133.68C174.842 133.4 174.417 133.26 173.894 133.26C173.437 133.26 173.036 133.377 172.69 133.61C172.345 133.834 172.088 134.128 171.92 134.492L170.968 133.974C171.108 133.657 171.328 133.367 171.626 133.106C171.934 132.845 172.284 132.639 172.676 132.49C173.068 132.331 173.474 132.252 173.894 132.252C174.445 132.252 174.93 132.359 175.35 132.574C175.78 132.789 176.111 133.087 176.344 133.47C176.587 133.843 176.708 134.277 176.708 134.772V139.924H175.658V138.426L175.812 138.58C175.682 138.86 175.476 139.117 175.196 139.35C174.926 139.574 174.604 139.756 174.23 139.896C173.866 140.027 173.465 140.092 173.026 140.092ZM178.868 139.924V132.42H179.918V133.652L179.778 133.47C179.955 133.115 180.221 132.835 180.576 132.63C180.94 132.425 181.379 132.322 181.892 132.322H182.368V133.372H181.71C181.169 133.372 180.735 133.54 180.408 133.876C180.081 134.212 179.918 134.688 179.918 135.304V139.924H178.868ZM186.987 140.092C186.287 140.092 185.657 139.924 185.097 139.588C184.537 139.243 184.093 138.776 183.767 138.188C183.449 137.591 183.291 136.919 183.291 136.172C183.291 135.416 183.449 134.744 183.767 134.156C184.093 133.568 184.532 133.106 185.083 132.77C185.643 132.425 186.277 132.252 186.987 132.252C187.631 132.252 188.205 132.392 188.709 132.672C189.213 132.952 189.609 133.33 189.899 133.806L189.731 134.1V129.326H190.781V139.924H189.731V138.244L189.899 138.398C189.637 138.939 189.245 139.359 188.723 139.658C188.209 139.947 187.631 140.092 186.987 140.092ZM187.043 139.042C187.547 139.042 187.999 138.916 188.401 138.664C188.811 138.412 189.133 138.071 189.367 137.642C189.609 137.203 189.731 136.713 189.731 136.172C189.731 135.631 189.609 135.145 189.367 134.716C189.133 134.277 188.811 133.932 188.401 133.68C187.999 133.428 187.547 133.302 187.043 133.302C186.548 133.302 186.1 133.428 185.699 133.68C185.297 133.932 184.98 134.273 184.747 134.702C184.523 135.131 184.411 135.621 184.411 136.172C184.411 136.713 184.523 137.203 184.747 137.642C184.98 138.071 185.293 138.412 185.685 138.664C186.086 138.916 186.539 139.042 187.043 139.042ZM195.469 139.924V129.494H196.589V139.924H195.469ZM198.897 139.924V132.42H199.947V133.848L199.779 133.638C199.985 133.199 200.288 132.859 200.689 132.616C201.1 132.373 201.548 132.252 202.033 132.252C202.612 132.252 203.135 132.415 203.601 132.742C204.068 133.069 204.399 133.493 204.595 134.016L204.301 134.03C204.488 133.451 204.81 133.013 205.267 132.714C205.734 132.406 206.247 132.252 206.807 132.252C207.311 132.252 207.773 132.373 208.193 132.616C208.623 132.859 208.963 133.195 209.215 133.624C209.477 134.044 209.607 134.52 209.607 135.052V139.924H208.557V135.458C208.557 135.001 208.473 134.613 208.305 134.296C208.147 133.979 207.927 133.736 207.647 133.568C207.367 133.391 207.045 133.302 206.681 133.302C206.327 133.302 206.005 133.391 205.715 133.568C205.426 133.736 205.197 133.983 205.029 134.31C204.861 134.627 204.777 135.01 204.777 135.458V139.924H203.727V135.458C203.727 135.001 203.643 134.613 203.475 134.296C203.317 133.979 203.097 133.736 202.817 133.568C202.537 133.391 202.215 133.302 201.851 133.302C201.487 133.302 201.161 133.391 200.871 133.568C200.591 133.736 200.367 133.983 200.199 134.31C200.031 134.627 199.947 135.01 199.947 135.458V139.924H198.897ZM213.782 140.092C213.306 140.092 212.882 140.003 212.508 139.826C212.135 139.639 211.841 139.387 211.626 139.07C211.412 138.753 211.304 138.389 211.304 137.978C211.304 137.586 211.388 137.231 211.556 136.914C211.724 136.587 211.986 136.312 212.34 136.088C212.695 135.864 213.148 135.705 213.698 135.612L216.638 135.122V136.074L213.95 136.522C213.409 136.615 213.017 136.788 212.774 137.04C212.541 137.292 212.424 137.591 212.424 137.936C212.424 138.272 212.555 138.557 212.816 138.79C213.087 139.023 213.432 139.14 213.852 139.14C214.366 139.14 214.814 139.033 215.196 138.818C215.579 138.594 215.878 138.295 216.092 137.922C216.307 137.549 216.414 137.133 216.414 136.676V134.772C216.414 134.324 216.251 133.96 215.924 133.68C215.598 133.4 215.173 133.26 214.65 133.26C214.193 133.26 213.792 133.377 213.446 133.61C213.101 133.834 212.844 134.128 212.676 134.492L211.724 133.974C211.864 133.657 212.084 133.367 212.382 133.106C212.69 132.845 213.04 132.639 213.432 132.49C213.824 132.331 214.23 132.252 214.65 132.252C215.201 132.252 215.686 132.359 216.106 132.574C216.536 132.789 216.867 133.087 217.1 133.47C217.343 133.843 217.464 134.277 217.464 134.772V139.924H216.414V138.426L216.568 138.58C216.438 138.86 216.232 139.117 215.952 139.35C215.682 139.574 215.36 139.756 214.986 139.896C214.622 140.027 214.221 140.092 213.782 140.092ZM223.18 143.004C222.667 143.004 222.191 142.925 221.752 142.766C221.323 142.607 220.949 142.388 220.632 142.108C220.324 141.837 220.086 141.52 219.918 141.156L220.884 140.638C221.033 140.993 221.299 141.301 221.682 141.562C222.065 141.823 222.555 141.954 223.152 141.954C223.609 141.954 224.029 141.865 224.412 141.688C224.795 141.511 225.103 141.249 225.336 140.904C225.569 140.559 225.686 140.134 225.686 139.63V137.964L225.854 138.118C225.593 138.659 225.205 139.079 224.692 139.378C224.179 139.667 223.619 139.812 223.012 139.812C222.312 139.812 221.682 139.644 221.122 139.308C220.562 138.972 220.119 138.519 219.792 137.95C219.475 137.371 219.316 136.732 219.316 136.032C219.316 135.323 219.475 134.683 219.792 134.114C220.119 133.545 220.557 133.092 221.108 132.756C221.668 132.42 222.303 132.252 223.012 132.252C223.619 132.252 224.169 132.392 224.664 132.672C225.168 132.952 225.565 133.33 225.854 133.806L225.686 134.1V132.42H226.736V139.63C226.736 140.274 226.582 140.848 226.274 141.352C225.975 141.865 225.555 142.267 225.014 142.556C224.482 142.855 223.871 143.004 223.18 143.004ZM223.068 138.762C223.553 138.762 223.992 138.641 224.384 138.398C224.776 138.146 225.089 137.815 225.322 137.404C225.565 136.984 225.686 136.527 225.686 136.032C225.686 135.537 225.565 135.085 225.322 134.674C225.089 134.254 224.776 133.923 224.384 133.68C223.992 133.428 223.553 133.302 223.068 133.302C222.573 133.302 222.125 133.428 221.724 133.68C221.323 133.923 221.005 134.249 220.772 134.66C220.548 135.071 220.436 135.528 220.436 136.032C220.436 136.527 220.548 136.984 220.772 137.404C221.005 137.815 221.318 138.146 221.71 138.398C222.111 138.641 222.564 138.762 223.068 138.762ZM232.309 140.092C231.609 140.092 230.975 139.924 230.405 139.588C229.845 139.243 229.402 138.771 229.075 138.174C228.749 137.577 228.585 136.9 228.585 136.144C228.585 135.388 228.744 134.721 229.061 134.142C229.379 133.554 229.808 133.092 230.349 132.756C230.9 132.42 231.516 132.252 232.197 132.252C232.739 132.252 233.219 132.355 233.639 132.56C234.069 132.756 234.433 133.027 234.731 133.372C235.03 133.708 235.259 134.091 235.417 134.52C235.576 134.94 235.655 135.374 235.655 135.822C235.655 135.915 235.651 136.023 235.641 136.144C235.632 136.256 235.618 136.373 235.599 136.494H229.257V135.514H234.997L234.493 135.934C234.577 135.421 234.517 134.963 234.311 134.562C234.115 134.151 233.831 133.829 233.457 133.596C233.084 133.353 232.664 133.232 232.197 133.232C231.731 133.232 231.297 133.353 230.895 133.596C230.503 133.839 230.195 134.179 229.971 134.618C229.747 135.047 229.659 135.561 229.705 136.158C229.659 136.755 229.752 137.278 229.985 137.726C230.228 138.165 230.555 138.505 230.965 138.748C231.385 138.991 231.833 139.112 232.309 139.112C232.86 139.112 233.322 138.981 233.695 138.72C234.069 138.459 234.372 138.132 234.605 137.74L235.501 138.216C235.352 138.552 235.123 138.865 234.815 139.154C234.507 139.434 234.139 139.663 233.709 139.84C233.289 140.008 232.823 140.092 232.309 140.092Z" fill="#979797"/>
<path d="M167.207 89.212V73.9575M167.207 73.9575L162.012 79.0423M167.207 73.9575L172.402 79.0423" stroke="#979797" stroke-width="2" stroke-linecap="round" stroke-linejoin="round"/>
<path d="M200.976 71.4152V84.1272C200.976 96.8393 195.781 101.924 182.793 101.924H167.207C154.22 101.924 149.024 96.8393 149.024 84.1272V68.8728C149.024 56.1607 154.22 51.0759 167.207 51.0759H180.195" stroke="#979797" stroke-width="2" stroke-linecap="round" stroke-linejoin="round"/>
<path d="M200.976 71.4152H190.586C182.793 71.4152 180.195 68.8728 180.195 61.2456V51.0759L200.976 71.4152Z" stroke="#979797" stroke-width="2" stroke-linecap="round" stroke-linejoin="round"/>
</svg>
