<svg width="25" height="25" viewBox="0 0 25 25" fill="none" xmlns="http://www.w3.org/2000/svg">
<path fill-rule="evenodd" clip-rule="evenodd" d="M15.9536 0.865479C16.4157 0.865479 16.7908 1.24055 16.7908 1.70268L16.7913 2.64907C18.4212 2.76082 19.7749 3.3191 20.7329 4.27916C21.7789 5.32957 22.3292 6.83989 22.3237 8.6516V18.8354C22.3237 22.5548 19.9616 24.8655 16.1607 24.8655H6.71922C2.91831 24.8655 0.556274 22.5224 0.556274 18.7505V8.64937C0.556274 5.14113 2.66275 2.88922 6.09822 2.64946L6.09891 1.70268C6.09891 1.24055 6.47398 0.865479 6.93612 0.865479C7.39825 0.865479 7.77332 1.24055 7.77332 1.70268L7.77299 2.62808H15.1158L15.1164 1.70268C15.1164 1.24055 15.4915 0.865479 15.9536 0.865479ZM20.6492 10.8048H2.23069V18.7505C2.23069 21.6149 3.82472 23.1911 6.71922 23.1911H16.1607C19.0552 23.1911 20.6492 21.6439 20.6492 18.8354L20.6492 10.8048ZM16.4087 17.8287C16.8708 17.8287 17.2459 18.2038 17.2459 18.6659C17.2459 19.1281 16.8708 19.5031 16.4087 19.5031C15.9466 19.5031 15.567 19.1281 15.567 18.6659C15.567 18.2038 15.9365 17.8287 16.3987 17.8287H16.4087ZM11.4552 17.8287C11.9174 17.8287 12.2924 18.2038 12.2924 18.6659C12.2924 19.1281 11.9174 19.5031 11.4552 19.5031C10.9931 19.5031 10.6136 19.1281 10.6136 18.6659C10.6136 18.2038 10.9831 17.8287 11.4452 17.8287H11.4552ZM6.49139 17.8287C6.95353 17.8287 7.3286 18.2038 7.3286 18.6659C7.3286 19.1281 6.95353 19.5031 6.49139 19.5031C6.02925 19.5031 5.6486 19.1281 5.6486 18.6659C5.6486 18.2038 6.01921 17.8287 6.48135 17.8287H6.49139ZM16.4087 13.4901C16.8708 13.4901 17.2459 13.8652 17.2459 14.3273C17.2459 14.7894 16.8708 15.1645 16.4087 15.1645C15.9466 15.1645 15.567 14.7894 15.567 14.3273C15.567 13.8652 15.9365 13.4901 16.3987 13.4901H16.4087ZM11.4552 13.4901C11.9174 13.4901 12.2924 13.8652 12.2924 14.3273C12.2924 14.7894 11.9174 15.1645 11.4552 15.1645C10.9931 15.1645 10.6136 14.7894 10.6136 14.3273C10.6136 13.8652 10.9831 13.4901 11.4452 13.4901H11.4552ZM6.49139 13.4901C6.95353 13.4901 7.3286 13.8652 7.3286 14.3273C7.3286 14.7894 6.95353 15.1645 6.49139 15.1645C6.02925 15.1645 5.6486 14.7894 5.6486 14.3273C5.6486 13.8652 6.01921 13.4901 6.48135 13.4901H6.49139ZM15.1158 4.30249H7.77299L7.77332 5.37634C7.77332 5.83848 7.39825 6.21355 6.93612 6.21355C6.47398 6.21355 6.09891 5.83848 6.09891 5.37634L6.09832 4.32783C3.5976 4.5379 2.23069 6.05376 2.23069 8.64937V9.13037H20.6492L20.6492 8.64937C20.6537 7.27077 20.2831 6.19915 19.5474 5.46241C18.9017 4.81475 17.9577 4.42796 16.7918 4.32836L16.7908 5.37634C16.7908 5.83848 16.4157 6.21355 15.9536 6.21355C15.4915 6.21355 15.1164 5.83848 15.1164 5.37634L15.1158 4.30249Z" fill="#FF5722"/>
<circle cx="20.6447" cy="4.86548" r="3.5" fill="#FF5722" stroke="white"/>
</svg>
