<svg width="22" height="22" viewBox="0 0 22 22" fill="none" xmlns="http://www.w3.org/2000/svg">
<path d="M15.814 21.875C16.2781 21.875 16.7232 21.6906 17.0514 21.3624C17.3796 21.0342 17.564 20.5891 17.564 20.125C17.564 19.6609 17.3796 19.2158 17.0514 18.8876C16.7232 18.5594 16.2781 18.375 15.814 18.375C15.3498 18.375 14.9047 18.5594 14.5765 18.8876C14.2483 19.2158 14.064 19.6609 14.064 20.125C14.064 20.5891 14.2483 21.0342 14.5765 21.3624C14.9047 21.6906 15.3498 21.875 15.814 21.875ZM7.81396 21.875C8.27809 21.875 8.72321 21.6906 9.0514 21.3624C9.37959 21.0342 9.56396 20.5891 9.56396 20.125C9.56396 19.6609 9.37959 19.2158 9.0514 18.8876C8.72321 18.5594 8.27809 18.375 7.81396 18.375C7.34984 18.375 6.90472 18.5594 6.57653 18.8876C6.24834 19.2158 6.06396 19.6609 6.06396 20.125C6.06396 20.5891 6.24834 21.0342 6.57653 21.3624C6.90472 21.6906 7.34984 21.875 7.81396 21.875ZM4.40396 3.315L4.20396 5.765C4.16396 6.235 4.53396 6.625 5.00396 6.625H20.314C20.734 6.625 21.084 6.305 21.114 5.885C21.244 4.115 19.894 2.675 18.124 2.675H5.83396C5.73396 2.235 5.53396 1.815 5.22396 1.465C4.72396 0.935 4.02396 0.625 3.30396 0.625H1.56396C1.15396 0.625 0.813965 0.965 0.813965 1.375C0.813965 1.785 1.15396 2.125 1.56396 2.125H3.30396C3.61396 2.125 3.90396 2.255 4.11397 2.475C4.32397 2.705 4.42396 3.005 4.40396 3.315ZM20.074 8.125H4.73396C4.31396 8.125 3.97396 8.445 3.93396 8.855L3.57397 13.205C3.53963 13.608 3.58936 14.0138 3.71999 14.3967C3.85063 14.7795 4.05932 15.131 4.33287 15.429C4.60641 15.727 4.93885 15.9649 5.30913 16.1278C5.67941 16.2906 6.07946 16.3748 6.48396 16.375H17.604C19.104 16.375 20.424 15.145 20.534 13.645L20.864 8.975C20.8735 8.86606 20.8601 8.75633 20.8245 8.65291C20.789 8.54948 20.7322 8.45465 20.6577 8.37455C20.5833 8.29445 20.4929 8.23085 20.3923 8.18787C20.2918 8.14488 20.1833 8.12347 20.074 8.125Z" fill="#FF5722"/>
</svg>
