<svg width="22" height="22" viewBox="0 0 22 22" fill="none" xmlns="http://www.w3.org/2000/svg">
<path d="M1.43311 1H3.17311C4.25311 1 5.10311 1.93 5.01311 3L4.18311 12.96C4.1507 13.3459 4.19879 13.7342 4.32434 14.1005C4.44989 14.4669 4.65015 14.8031 4.91245 15.0879C5.17474 15.3728 5.49334 15.6001 5.84806 15.7553C6.20278 15.9106 6.58589 15.9905 6.97311 15.99H17.6231C19.0631 15.99 20.3231 14.81 20.4331 13.38L20.9731 5.88C21.0931 4.22 19.8331 2.87 18.1631 2.87H5.25311M8.43311 7H20.4331M15.6831 21C16.0146 21 16.3326 20.8683 16.567 20.6339C16.8014 20.3995 16.9331 20.0815 16.9331 19.75C16.9331 19.4185 16.8014 19.1005 16.567 18.8661C16.3326 18.6317 16.0146 18.5 15.6831 18.5C15.3516 18.5 15.0336 18.6317 14.7992 18.8661C14.5648 19.1005 14.4331 19.4185 14.4331 19.75C14.4331 20.0815 14.5648 20.3995 14.7992 20.6339C15.0336 20.8683 15.3516 21 15.6831 21ZM7.68311 21C8.01463 21 8.33257 20.8683 8.56699 20.6339C8.80141 20.3995 8.93311 20.0815 8.93311 19.75C8.93311 19.4185 8.80141 19.1005 8.56699 18.8661C8.33257 18.6317 8.01463 18.5 7.68311 18.5C7.35158 18.5 7.03364 18.6317 6.79922 18.8661C6.5648 19.1005 6.43311 19.4185 6.43311 19.75C6.43311 20.0815 6.5648 20.3995 6.79922 20.6339C7.03364 20.8683 7.35158 21 7.68311 21Z" stroke="#68686E" stroke-width="1.5" stroke-miterlimit="10" stroke-linecap="round" stroke-linejoin="round"/>
</svg>
