<svg width="26" height="26" viewBox="0 0 26 26" fill="none" xmlns="http://www.w3.org/2000/svg">
<path d="M19.3355 17.6716L19.7417 20.9632C19.8459 21.8278 18.9188 22.432 18.1792 21.9841L14.575 19.8382C14.325 19.6924 14.2625 19.3799 14.398 19.1299C14.9188 18.1715 15.2 17.0882 15.2 16.0049C15.2 12.1924 11.9292 9.08822 7.90838 9.08822C7.08547 9.08822 6.28338 9.21322 5.53338 9.46322C5.44471 9.49057 5.35037 9.49398 5.25996 9.47309C5.16954 9.45221 5.08625 9.40778 5.01856 9.34431C4.95086 9.28084 4.90115 9.20059 4.87448 9.11171C4.84782 9.02283 4.84514 8.92847 4.86672 8.83822C5.81463 5.04655 9.46047 2.22363 13.8146 2.22363C18.898 2.22363 23.0125 6.06738 23.0125 10.807C23.0125 13.6195 21.5646 16.1091 19.3355 17.6716Z" fill="#FF5722"/>
<path d="M13.6378 16.0055C13.6378 17.2451 13.1794 18.391 12.4086 19.2972C11.3774 20.5472 9.74194 21.3493 7.90861 21.3493L5.18986 22.9639C4.73153 23.2451 4.14819 22.8597 4.21069 22.3285L4.47111 20.2764C3.07528 19.3076 2.17944 17.7555 2.17944 16.0055C2.17944 14.1722 3.15861 12.5576 4.65861 11.5993C5.58569 10.9951 6.70028 10.6514 7.90861 10.6514C11.0753 10.6514 13.6378 13.0472 13.6378 16.0055Z" fill="#FF5722"/>
</svg>
