<svg width="22" height="22" viewBox="0 0 22 22" fill="none" xmlns="http://www.w3.org/2000/svg">
<path d="M16.9692 15.5505L17.3105 18.3155C17.398 19.0417 16.6192 19.5492 15.998 19.173L12.3317 16.9942C11.9292 16.9942 11.5355 16.968 11.1505 16.9155C11.8137 16.1466 12.1799 15.1658 12.183 14.1505C12.183 11.6655 10.0305 9.65297 7.37047 9.65297C6.35547 9.65297 5.41922 9.94172 4.64047 10.4492C4.61422 10.2305 4.60547 10.0117 4.60547 9.78422C4.60547 5.80297 8.06172 2.57422 12.3317 2.57422C16.6017 2.57422 20.058 5.80297 20.058 9.78422C20.058 12.1467 18.8417 14.238 16.9692 15.5505Z" stroke="#0A212B" stroke-width="1.5" stroke-linecap="round" stroke-linejoin="round"/>
<path d="M12.1831 14.1503C12.1831 15.1916 11.7981 16.1541 11.1506 16.9153C10.2844 17.9653 8.91061 18.6391 7.37061 18.6391L5.08686 19.9953C4.70186 20.2316 4.21186 19.9078 4.26436 19.4616L4.48311 17.7378C3.31061 16.9241 2.55811 15.6203 2.55811 14.1503C2.55811 12.6103 3.38061 11.2541 4.64061 10.4491C5.41936 9.94158 6.35561 9.65283 7.37061 9.65283C10.0306 9.65283 12.1831 11.6653 12.1831 14.1503Z" stroke="#0A212B" stroke-width="1.5" stroke-linecap="round" stroke-linejoin="round"/>
</svg>
