<svg width="53" height="51" viewBox="0 0 53 51" fill="none" xmlns="http://www.w3.org/2000/svg">
<rect x="0.870117" y="0.558594" width="51" height="49" rx="19.5" fill="white" stroke="#FF5722"/>
<path d="M17.3701 19.0586H35.3701" stroke="#FF5722" stroke-width="1.5" stroke-linecap="round" stroke-linejoin="round"/>
<path d="M30.3701 23.0586C30.3701 24.1195 29.9487 25.1369 29.1985 25.887C28.4484 26.6372 27.431 27.0586 26.3701 27.0586C25.3093 27.0586 24.2918 26.6372 23.5417 25.887C22.7915 25.1369 22.3701 24.1195 22.3701 23.0586" stroke="#FF5722" stroke-width="1.5" stroke-linecap="round" stroke-linejoin="round"/>
<path d="M20.3701 15.0586L17.3701 19.0586V33.0586C17.3701 33.589 17.5808 34.0977 17.9559 34.4728C18.331 34.8479 18.8397 35.0586 19.3701 35.0586H33.3701C33.9006 35.0586 34.4093 34.8479 34.7843 34.4728C35.1594 34.0977 35.3701 33.589 35.3701 33.0586V19.0586L32.3701 15.0586H20.3701Z" stroke="#FF5722" stroke-width="1.5" stroke-linecap="round" stroke-linejoin="round"/>
</svg>
