<svg width="23" height="23" viewBox="0 0 23 23" fill="none" xmlns="http://www.w3.org/2000/svg">
<path d="M11.6504 0.53125C5.58939 0.53125 0.650391 5.47025 0.650391 11.5312C0.650391 17.5923 5.58939 22.5312 11.6504 22.5312C17.7114 22.5312 22.6504 17.5923 22.6504 11.5312C22.6504 5.47025 17.7114 0.53125 11.6504 0.53125ZM16.9084 9.00125L10.6714 15.2382C10.5167 15.3927 10.307 15.4795 10.0884 15.4795C9.86977 15.4795 9.66008 15.3927 9.50539 15.2382L6.39239 12.1252C6.23896 11.97 6.15292 11.7605 6.15292 11.5423C6.15292 11.324 6.23896 11.1145 6.39239 10.9592C6.71139 10.6402 7.23939 10.6402 7.55839 10.9592L10.0884 13.4893L15.7424 7.83525C16.0614 7.51625 16.5894 7.51625 16.9084 7.83525C17.2274 8.15425 17.2274 8.67125 16.9084 9.00125Z" fill="#FF5722"/>
</svg>
