<svg width="49" height="48" viewBox="0 0 49 48" fill="none" xmlns="http://www.w3.org/2000/svg">
<rect x="0.929688" y="0.143555" width="48" height="46.878" rx="10" fill="#FF5722"/>
<path fill-rule="evenodd" clip-rule="evenodd" d="M32.0324 17.9261C32.3658 17.9261 32.6434 18.1965 32.6434 18.5406V18.8587C32.6434 19.1943 32.3658 19.4731 32.0324 19.4731H17.8267C17.4924 19.4731 17.2148 19.1943 17.2148 18.8587V18.5406C17.2148 18.1965 17.4924 17.9261 17.8267 17.9261H20.3259C20.8336 17.9261 21.2754 17.5737 21.3896 17.0765L21.5205 16.5056C21.7239 15.7279 22.3933 15.2114 23.1594 15.2114H26.6989C27.4567 15.2114 28.1336 15.7279 28.3295 16.4646L28.4695 17.0756C28.5829 17.5737 29.0247 17.9261 29.5332 17.9261H32.0324ZM30.7628 29.5542C31.0237 27.1793 31.4805 21.5373 31.4805 21.4804C31.4972 21.3079 31.4396 21.1447 31.3254 21.0133C31.2029 20.8902 31.0478 20.8174 30.877 20.8174H18.9879C18.8162 20.8174 18.6528 20.8902 18.5394 21.0133C18.4244 21.1447 18.3677 21.3079 18.376 21.4804C18.3776 21.4908 18.394 21.6896 18.4214 22.0218C18.5431 23.4979 18.8822 27.6089 19.1013 29.5542C19.2563 30.9873 20.2192 31.888 21.6138 31.9207C22.69 31.9449 23.7987 31.9533 24.9324 31.9533C26.0003 31.9533 27.0848 31.9449 28.1944 31.9207C29.6374 31.8964 30.5994 31.0116 30.7628 29.5542Z" fill="white"/>
</svg>
