<svg width="23" height="22" viewBox="0 0 23 22" fill="none" xmlns="http://www.w3.org/2000/svg">
<path d="M12.6648 16.2819L9.89545 13.5125M12.6346 13.5427L9.86524 16.3121M3.68272 4.49957V2.27844C3.62679 1.8003 4.3566 0.844037 7.72323 0.844037C11.0899 0.844037 14.5831 0.844037 15.9088 0.844037C16.8957 0.788077 18.8765 0.996613 18.9044 2.27844C18.9323 3.56026 18.916 4.29328 18.9044 4.49957H3.68272Z" stroke="#FF1717" stroke-width="1.5" stroke-miterlimit="10" stroke-linecap="round" stroke-linejoin="round"/>
<path d="M1.22937 6.7352C1.22937 4.87219 2.22633 4.72113 3.46498 4.72113H19.1344C20.3731 4.72113 21.37 4.87219 21.37 6.7352C21.37 8.90032 20.3731 8.74926 19.1344 8.74926H3.46498C2.22633 8.74926 1.22937 8.90032 1.22937 6.7352Z" stroke="#FF1717" stroke-width="1.5"/>
<path d="M2.7135 8.75153L4.13342 17.4523C4.45567 19.4059 5.23108 20.8359 8.1112 20.8359H14.1836C17.3155 20.8359 17.7787 19.4664 18.1412 17.5731L19.8331 8.75153" stroke="#FF1717" stroke-width="1.5" stroke-linecap="round"/>
</svg>
