<svg width="23" height="23" viewBox="0 0 23 23" fill="none" xmlns="http://www.w3.org/2000/svg">
<path d="M13.1549 16.9459L10.3856 14.1766M13.1247 14.2068L10.3553 16.9761M4.17283 5.16363V2.9425C4.11691 2.46437 4.84672 1.5081 8.21334 1.5081C11.58 1.5081 15.0732 1.5081 16.3989 1.5081C17.3859 1.45214 19.3666 1.66068 19.3945 2.9425C19.4224 4.22432 19.4061 4.95735 19.3945 5.16363H4.17283Z" stroke="white" stroke-width="1.5" stroke-miterlimit="10" stroke-linecap="round" stroke-linejoin="round"/>
<path d="M1.71954 7.39932C1.71954 5.53631 2.71651 5.38525 3.95516 5.38525H19.6246C20.8632 5.38525 21.8602 5.53631 21.8602 7.39932C21.8602 9.56444 20.8632 9.41339 19.6246 9.41339H3.95516C2.71651 9.41339 1.71954 9.56444 1.71954 7.39932Z" stroke="white" stroke-width="1.5"/>
<path d="M3.20367 9.41553L4.62359 18.1163C4.94584 20.0699 5.72126 21.4999 8.60137 21.4999H14.6738C17.8057 21.4999 18.2689 20.1304 18.6314 18.2371L20.3232 9.41553" stroke="white" stroke-width="1.5" stroke-linecap="round"/>
</svg>
