<svg width="19" height="19" viewBox="0 0 19 19" fill="none" xmlns="http://www.w3.org/2000/svg">
<path d="M7.42285 0.167969H1.42285C1.15764 0.167969 0.903281 0.273326 0.715745 0.460862C0.528208 0.648398 0.422852 0.902752 0.422852 1.16797V7.16797C0.422852 7.43319 0.528208 7.68754 0.715745 7.87508C0.903281 8.06261 1.15764 8.16797 1.42285 8.16797H7.42285C7.68807 8.16797 7.94242 8.06261 8.12996 7.87508C8.31749 7.68754 8.42285 7.43319 8.42285 7.16797V1.16797C8.42285 0.902752 8.31749 0.648398 8.12996 0.460862C7.94242 0.273326 7.68807 0.167969 7.42285 0.167969ZM17.4229 10.168H11.4229C11.1576 10.168 10.9033 10.2733 10.7157 10.4609C10.5282 10.6484 10.4229 10.9028 10.4229 11.168V17.168C10.4229 17.4332 10.5282 17.6875 10.7157 17.8751C10.9033 18.0626 11.1576 18.168 11.4229 18.168H17.4229C17.6881 18.168 17.9424 18.0626 18.13 17.8751C18.3175 17.6875 18.4229 17.4332 18.4229 17.168V11.168C18.4229 10.9028 18.3175 10.6484 18.13 10.4609C17.9424 10.2733 17.6881 10.168 17.4229 10.168ZM14.4229 0.167969C12.2169 0.167969 10.4229 1.96197 10.4229 4.16797C10.4229 6.37397 12.2169 8.16797 14.4229 8.16797C16.6289 8.16797 18.4229 6.37397 18.4229 4.16797C18.4229 1.96197 16.6289 0.167969 14.4229 0.167969ZM4.42285 10.168C2.21685 10.168 0.422852 11.962 0.422852 14.168C0.422852 16.374 2.21685 18.168 4.42285 18.168C6.62885 18.168 8.42285 16.374 8.42285 14.168C8.42285 11.962 6.62885 10.168 4.42285 10.168Z" fill="#FF5C01"/>
</svg>
