<svg width="20" height="20" viewBox="0 0 20 20" fill="none" xmlns="http://www.w3.org/2000/svg">
<path d="M1.97841 1.25H8.31174C8.39278 1.25 8.4705 1.28219 8.5278 1.3395C8.5851 1.3968 8.6173 1.47452 8.6173 1.55556V7.88889C8.6173 7.96993 8.5851 8.04765 8.5278 8.10495C8.4705 8.16225 8.39278 8.19444 8.31174 8.19444H1.97841C1.89737 8.19444 1.81965 8.16225 1.76235 8.10495C1.70504 8.04765 1.67285 7.96993 1.67285 7.88889V1.55556C1.67285 1.47452 1.70504 1.3968 1.76235 1.3395L1.23202 0.809165L1.76235 1.3395C1.81965 1.28219 1.89737 1.25 1.97841 1.25ZM12.3179 11.8951C12.3752 11.8377 12.4529 11.8056 12.534 11.8056H18.8673C18.9483 11.8056 19.0261 11.8377 19.0834 11.8951C19.1407 11.9524 19.1729 12.0301 19.1729 12.1111V18.4444C19.1729 18.5255 19.1407 18.6032 19.0834 18.6605L19.6137 19.1908L19.0834 18.6605C19.0261 18.7178 18.9483 18.75 18.8673 18.75H12.534C12.4529 18.75 12.3752 18.7178 12.3179 18.6605C12.2606 18.6032 12.2284 18.5255 12.2284 18.4444V12.1111C12.2284 12.0301 12.2606 11.9524 12.3179 11.8951ZM12.2284 4.72222C12.2284 2.80788 13.7863 1.25 15.7006 1.25C17.615 1.25 19.1729 2.80788 19.1729 4.72222C19.1729 6.63656 17.615 8.19444 15.7006 8.19444C13.7863 8.19444 12.2284 6.63656 12.2284 4.72222ZM1.67285 15.2778C1.67285 13.3634 3.23073 11.8056 5.14507 11.8056C7.05942 11.8056 8.6173 13.3634 8.6173 15.2778C8.6173 17.1921 7.05942 18.75 5.14507 18.75C3.23073 18.75 1.67285 17.1921 1.67285 15.2778Z" stroke="#68686E" stroke-width="1.5"/>
</svg>
