<svg width="14" height="9" viewBox="0 0 14 9" fill="none" xmlns="http://www.w3.org/2000/svg">
<path d="M9.55384 0.695884C9.48997 0.626698 9.41399 0.571783 9.33027 0.534308C9.24655 0.496833 9.15676 0.477539 9.06606 0.477539C8.97537 0.477539 8.88557 0.496833 8.80186 0.534308C8.71814 0.571783 8.64215 0.626698 8.57829 0.695884L3.46006 6.20253L1.30972 3.88472C1.24341 3.81589 1.16513 3.76178 1.07935 3.72546C0.993577 3.68914 0.901983 3.67133 0.809799 3.67304C0.717616 3.67475 0.626649 3.69596 0.542093 3.73544C0.457537 3.77493 0.381047 3.83193 0.316992 3.90317C0.252936 3.97442 0.202568 4.05853 0.168765 4.15069C0.134961 4.24285 0.118383 4.34127 0.119978 4.44031C0.121573 4.53936 0.141309 4.6371 0.17806 4.72795C0.21481 4.8188 0.267856 4.90098 0.334167 4.96981L2.97229 7.80433C3.03615 7.87352 3.11214 7.92843 3.19585 7.96591C3.27957 8.00338 3.36937 8.02267 3.46006 8.02267C3.55076 8.02267 3.64055 8.00338 3.72427 7.96591C3.80799 7.92843 3.88397 7.87352 3.94784 7.80433L9.55384 1.78097C9.62357 1.71185 9.67923 1.62796 9.71729 1.53458C9.75536 1.44121 9.77501 1.34037 9.77501 1.23843C9.77501 1.13649 9.75536 1.03565 9.71729 0.942276C9.67923 0.8489 9.62357 0.765007 9.55384 0.695884Z" fill="#FF5722"/>
<path d="M5.14722 6.01295L6.46957 7.32294L12.4172 1.21777" stroke="#FF5722" stroke-width="1.5" stroke-linecap="round" stroke-linejoin="round"/>
</svg>
