<svg width="23" height="23" viewBox="0 0 23 23" fill="none" xmlns="http://www.w3.org/2000/svg">
<circle cx="11.6476" cy="11.178" r="10.5" fill="white" stroke="#FF5722"/>
<path d="M12.2822 6.90336L8.14394 11.2836C7.98769 11.4499 7.83647 11.7776 7.80623 12.0044L7.61973 13.6375C7.5542 14.2273 7.97761 14.6305 8.56231 14.5297L10.1854 14.2525C10.4122 14.2122 10.7297 14.0458 10.886 13.8745L15.0243 9.4942C15.7401 8.73812 16.0627 7.87619 14.9487 6.82271C13.8398 5.77931 12.998 6.14727 12.2822 6.90336Z" stroke="#FF5722" stroke-miterlimit="10" stroke-linecap="round" stroke-linejoin="round"/>
<path d="M11.592 7.63422C11.6977 8.31008 12.0248 8.93172 12.522 9.40156C13.0192 9.8714 13.6584 10.1628 14.3391 10.2301M7.11096 16.178H16.184" stroke="#FF5722" stroke-miterlimit="10" stroke-linecap="round" stroke-linejoin="round"/>
</svg>
