<svg width="24" height="24" viewBox="0 0 24 24" fill="none" xmlns="http://www.w3.org/2000/svg">
<path d="M12.1799 12.1344C13.4507 12.1344 14.6695 11.6295 15.5681 10.7309C16.4667 9.8323 16.9715 8.61352 16.9715 7.34269C16.9715 6.07186 16.4667 4.85308 15.5681 3.95447C14.6695 3.05586 13.4507 2.55103 12.1799 2.55103C10.909 2.55103 9.69024 3.05586 8.79163 3.95447C7.89302 4.85308 7.38818 6.07186 7.38818 7.34269C7.38818 8.61352 7.89302 9.8323 8.79163 10.7309C9.69024 11.6295 10.909 12.1344 12.1799 12.1344Z" stroke="#0A212B" stroke-width="1.5" stroke-linecap="round" stroke-linejoin="round"/>
<path d="M19.0896 15.7183L15.6971 19.1108C15.5629 19.245 15.4383 19.4942 15.4096 19.6763L15.2275 20.97C15.1604 21.4396 15.4863 21.7654 15.9558 21.6983L17.2496 21.5163C17.4317 21.4875 17.6904 21.3629 17.815 21.2288L21.2075 17.8363C21.7921 17.2517 22.07 16.5713 21.2075 15.7088C20.3546 14.8558 19.6742 15.1338 19.0896 15.7183Z" stroke="#0A212B" stroke-width="1.5" stroke-miterlimit="10" stroke-linecap="round" stroke-linejoin="round"/>
<path d="M18.6008 16.2073C18.8883 17.2423 19.6933 18.0473 20.7283 18.3348" stroke="#0A212B" stroke-width="1.5" stroke-miterlimit="10" stroke-linecap="round" stroke-linejoin="round"/>
<path d="M3.94775 21.7176C3.94775 18.0089 7.63734 15.0093 12.1798 15.0093C13.1765 15.0093 14.1348 15.153 15.0261 15.4214" stroke="#0A212B" stroke-width="1.5" stroke-linecap="round" stroke-linejoin="round"/>
</svg>
