<svg width="430" height="480" viewBox="0 0 430 480" fill="none" xmlns="http://www.w3.org/2000/svg">
<path d="M299.99 305.027C297.148 307.963 287.835 311 281.916 311C275.998 311 273.055 307.971 270.212 305.035C267.471 302.209 264.886 299.537 259.684 299.537C254.482 299.537 251.889 302.208 249.156 305.027C246.305 307.963 243.362 311 237.451 311C231.541 311 228.59 307.971 225.747 305.035C223.006 302.209 220.421 299.537 215.219 299.537C210.017 299.537 207.424 302.208 204.691 305.027C201.848 307.963 198.897 311 192.986 311C187.076 311 184.132 307.963 181.282 305.027C178.541 302.208 175.956 299.537 170.754 299.537C165.552 299.537 162.959 302.208 160.226 305.027C157.383 307.963 154.432 311 148.522 311C142.611 311 133.298 307.963 130.455 305.027C127.823 302.325 137.464 190.423 137.464 190.423C137.464 147.469 172.28 112.66 215.227 112.66C236.704 112.66 256.149 121.366 270.212 135.438C284.284 149.509 292.99 168.946 292.99 190.431C292.99 190.431 302.63 302.333 299.998 305.035L299.99 305.027Z" fill="#D9D5D3"/>
<path d="M201.108 234.67C200.588 234.59 200.128 235.04 200.208 235.56C201.748 245.02 207.778 250.32 214.998 250.32C222.218 250.32 228.248 245.02 229.788 235.56C229.868 235.04 229.408 234.59 228.888 234.67C226.448 235.05 220.218 235.92 214.998 235.92C209.778 235.92 203.548 235.05 201.108 234.67Z" fill="#FAFAFA"/>
<path d="M191.149 220.87C196.721 220.87 201.239 216.353 201.239 210.78C201.239 205.208 196.721 200.69 191.149 200.69C185.576 200.69 181.059 205.208 181.059 210.78C181.059 216.353 185.576 220.87 191.149 220.87Z" fill="#FAFAFA"/>
<path d="M238.852 220.87C244.424 220.87 248.942 216.353 248.942 210.78C248.942 205.208 244.424 200.69 238.852 200.69C233.279 200.69 228.762 205.208 228.762 210.78C228.762 216.353 233.279 220.87 238.852 220.87Z" fill="#FAFAFA"/>
</svg>
