<svg width="350" height="195" viewBox="0 0 350 195" fill="none" xmlns="http://www.w3.org/2000/svg">
<rect x="0.5" y="0.5" width="349" height="194" rx="29.5" fill="white" stroke="#DADADA"/>
<path d="M110.239 139.924V129.494H116.679V130.544H111.359V134.17H116.259V135.22H111.359V139.924H110.239ZM117.796 139.924V132.42H118.846V133.652L118.706 133.47C118.883 133.115 119.149 132.835 119.504 132.63C119.868 132.425 120.306 132.322 120.82 132.322H121.296V133.372H120.638C120.096 133.372 119.662 133.54 119.336 133.876C119.009 134.212 118.846 134.688 118.846 135.304V139.924H117.796ZM126.04 140.092C125.331 140.092 124.687 139.924 124.108 139.588C123.53 139.243 123.068 138.776 122.722 138.188C122.386 137.591 122.218 136.914 122.218 136.158C122.218 135.411 122.386 134.744 122.722 134.156C123.058 133.568 123.511 133.106 124.08 132.77C124.659 132.425 125.312 132.252 126.04 132.252C126.768 132.252 127.417 132.42 127.986 132.756C128.565 133.092 129.018 133.554 129.344 134.142C129.68 134.73 129.848 135.402 129.848 136.158C129.848 136.923 129.676 137.605 129.33 138.202C128.985 138.79 128.523 139.252 127.944 139.588C127.375 139.924 126.74 140.092 126.04 140.092ZM126.04 139.042C126.544 139.042 126.997 138.916 127.398 138.664C127.809 138.412 128.131 138.067 128.364 137.628C128.607 137.189 128.728 136.699 128.728 136.158C128.728 135.617 128.607 135.131 128.364 134.702C128.131 134.273 127.809 133.932 127.398 133.68C126.997 133.428 126.544 133.302 126.04 133.302C125.536 133.302 125.079 133.428 124.668 133.68C124.267 133.932 123.945 134.273 123.702 134.702C123.46 135.131 123.338 135.617 123.338 136.158C123.338 136.699 123.46 137.189 123.702 137.628C123.945 138.067 124.267 138.412 124.668 138.664C125.079 138.916 125.536 139.042 126.04 139.042ZM131.7 139.924V132.42H132.75V133.876L132.512 133.82C132.699 133.335 133.002 132.952 133.422 132.672C133.851 132.392 134.346 132.252 134.906 132.252C135.438 132.252 135.914 132.373 136.334 132.616C136.763 132.859 137.099 133.195 137.342 133.624C137.594 134.044 137.72 134.52 137.72 135.052V139.924H136.67V135.458C136.67 135.001 136.586 134.613 136.418 134.296C136.259 133.979 136.031 133.736 135.732 133.568C135.443 133.391 135.107 133.302 134.724 133.302C134.341 133.302 134.001 133.391 133.702 133.568C133.403 133.736 133.17 133.983 133.002 134.31C132.834 134.627 132.75 135.01 132.75 135.458V139.924H131.7ZM142.595 140.008C141.923 140.008 141.405 139.812 141.041 139.42C140.677 139.028 140.495 138.468 140.495 137.74V133.47H139.109V132.42H139.459C139.777 132.42 140.029 132.317 140.215 132.112C140.402 131.897 140.495 131.631 140.495 131.314V130.684H141.545V132.42H143.197V133.47H141.545V137.74C141.545 137.992 141.583 138.216 141.657 138.412C141.732 138.599 141.858 138.748 142.035 138.86C142.222 138.972 142.469 139.028 142.777 139.028C142.852 139.028 142.941 139.023 143.043 139.014C143.146 139.005 143.235 138.995 143.309 138.986V139.924C143.197 139.952 143.071 139.971 142.931 139.98C142.791 139.999 142.679 140.008 142.595 140.008ZM147.686 139.924V129.494H148.806V139.924H147.686ZM151.268 139.924V129.494H154.698C155.734 129.494 156.635 129.709 157.4 130.138C158.165 130.558 158.758 131.16 159.178 131.944C159.598 132.719 159.808 133.638 159.808 134.702C159.808 135.757 159.598 136.676 159.178 137.46C158.758 138.244 158.165 138.851 157.4 139.28C156.635 139.709 155.734 139.924 154.698 139.924H151.268ZM152.388 138.874H154.698C155.501 138.874 156.196 138.706 156.784 138.37C157.372 138.025 157.825 137.539 158.142 136.914C158.469 136.289 158.632 135.551 158.632 134.702C158.632 133.853 158.469 133.12 158.142 132.504C157.815 131.879 157.358 131.398 156.77 131.062C156.182 130.717 155.491 130.544 154.698 130.544H152.388V138.874ZM167.314 140.092C166.576 140.092 165.928 139.919 165.368 139.574C164.808 139.229 164.369 138.762 164.052 138.174C163.734 137.577 163.576 136.905 163.576 136.158C163.576 135.411 163.734 134.744 164.052 134.156C164.369 133.568 164.808 133.106 165.368 132.77C165.928 132.425 166.576 132.252 167.314 132.252C167.78 132.252 168.219 132.336 168.63 132.504C169.04 132.672 169.404 132.901 169.722 133.19C170.039 133.47 170.277 133.797 170.436 134.17L169.484 134.66C169.297 134.259 169.012 133.932 168.63 133.68C168.247 133.428 167.808 133.302 167.314 133.302C166.819 133.302 166.371 133.428 165.97 133.68C165.578 133.923 165.265 134.263 165.032 134.702C164.808 135.131 164.696 135.621 164.696 136.172C164.696 136.713 164.808 137.203 165.032 137.642C165.265 138.071 165.578 138.412 165.97 138.664C166.371 138.916 166.819 139.042 167.314 139.042C167.808 139.042 168.242 138.916 168.616 138.664C168.998 138.412 169.288 138.076 169.484 137.656L170.436 138.174C170.277 138.538 170.039 138.865 169.722 139.154C169.404 139.443 169.04 139.672 168.63 139.84C168.219 140.008 167.78 140.092 167.314 140.092ZM174.311 140.092C173.835 140.092 173.411 140.003 173.037 139.826C172.664 139.639 172.37 139.387 172.155 139.07C171.941 138.753 171.833 138.389 171.833 137.978C171.833 137.586 171.917 137.231 172.085 136.914C172.253 136.587 172.515 136.312 172.869 136.088C173.224 135.864 173.677 135.705 174.227 135.612L177.167 135.122V136.074L174.479 136.522C173.938 136.615 173.546 136.788 173.303 137.04C173.07 137.292 172.953 137.591 172.953 137.936C172.953 138.272 173.084 138.557 173.345 138.79C173.616 139.023 173.961 139.14 174.381 139.14C174.895 139.14 175.343 139.033 175.725 138.818C176.108 138.594 176.407 138.295 176.621 137.922C176.836 137.549 176.943 137.133 176.943 136.676V134.772C176.943 134.324 176.78 133.96 176.453 133.68C176.127 133.4 175.702 133.26 175.179 133.26C174.722 133.26 174.321 133.377 173.975 133.61C173.63 133.834 173.373 134.128 173.205 134.492L172.253 133.974C172.393 133.657 172.613 133.367 172.911 133.106C173.219 132.845 173.569 132.639 173.961 132.49C174.353 132.331 174.759 132.252 175.179 132.252C175.73 132.252 176.215 132.359 176.635 132.574C177.065 132.789 177.396 133.087 177.629 133.47C177.872 133.843 177.993 134.277 177.993 134.772V139.924H176.943V138.426L177.097 138.58C176.967 138.86 176.761 139.117 176.481 139.35C176.211 139.574 175.889 139.756 175.515 139.896C175.151 140.027 174.75 140.092 174.311 140.092ZM180.153 139.924V132.42H181.203V133.652L181.063 133.47C181.241 133.115 181.507 132.835 181.861 132.63C182.225 132.425 182.664 132.322 183.177 132.322H183.653V133.372H182.995C182.454 133.372 182.02 133.54 181.693 133.876C181.367 134.212 181.203 134.688 181.203 135.304V139.924H180.153ZM188.272 140.092C187.572 140.092 186.942 139.924 186.382 139.588C185.822 139.243 185.378 138.776 185.052 138.188C184.734 137.591 184.576 136.919 184.576 136.172C184.576 135.416 184.734 134.744 185.052 134.156C185.378 133.568 185.817 133.106 186.368 132.77C186.928 132.425 187.562 132.252 188.272 132.252C188.916 132.252 189.49 132.392 189.994 132.672C190.498 132.952 190.894 133.33 191.184 133.806L191.016 134.1V129.326H192.066V139.924H191.016V138.244L191.184 138.398C190.922 138.939 190.53 139.359 190.008 139.658C189.494 139.947 188.916 140.092 188.272 140.092ZM188.328 139.042C188.832 139.042 189.284 138.916 189.686 138.664C190.096 138.412 190.418 138.071 190.652 137.642C190.894 137.203 191.016 136.713 191.016 136.172C191.016 135.631 190.894 135.145 190.652 134.716C190.418 134.277 190.096 133.932 189.686 133.68C189.284 133.428 188.832 133.302 188.328 133.302C187.833 133.302 187.385 133.428 186.984 133.68C186.582 133.932 186.265 134.273 186.032 134.702C185.808 135.131 185.696 135.621 185.696 136.172C185.696 136.713 185.808 137.203 186.032 137.642C186.265 138.071 186.578 138.412 186.97 138.664C187.371 138.916 187.824 139.042 188.328 139.042ZM196.754 139.924V129.494H197.874V139.924H196.754ZM200.182 139.924V132.42H201.232V133.848L201.064 133.638C201.27 133.199 201.573 132.859 201.974 132.616C202.385 132.373 202.833 132.252 203.318 132.252C203.897 132.252 204.42 132.415 204.886 132.742C205.353 133.069 205.684 133.493 205.88 134.016L205.586 134.03C205.773 133.451 206.095 133.013 206.552 132.714C207.019 132.406 207.532 132.252 208.092 132.252C208.596 132.252 209.058 132.373 209.478 132.616C209.908 132.859 210.248 133.195 210.5 133.624C210.762 134.044 210.892 134.52 210.892 135.052V139.924H209.842V135.458C209.842 135.001 209.758 134.613 209.59 134.296C209.432 133.979 209.212 133.736 208.932 133.568C208.652 133.391 208.33 133.302 207.966 133.302C207.612 133.302 207.29 133.391 207 133.568C206.711 133.736 206.482 133.983 206.314 134.31C206.146 134.627 206.062 135.01 206.062 135.458V139.924H205.012V135.458C205.012 135.001 204.928 134.613 204.76 134.296C204.602 133.979 204.382 133.736 204.102 133.568C203.822 133.391 203.5 133.302 203.136 133.302C202.772 133.302 202.446 133.391 202.156 133.568C201.876 133.736 201.652 133.983 201.484 134.31C201.316 134.627 201.232 135.01 201.232 135.458V139.924H200.182ZM215.067 140.092C214.591 140.092 214.167 140.003 213.793 139.826C213.42 139.639 213.126 139.387 212.911 139.07C212.697 138.753 212.589 138.389 212.589 137.978C212.589 137.586 212.673 137.231 212.841 136.914C213.009 136.587 213.271 136.312 213.625 136.088C213.98 135.864 214.433 135.705 214.983 135.612L217.923 135.122V136.074L215.235 136.522C214.694 136.615 214.302 136.788 214.059 137.04C213.826 137.292 213.709 137.591 213.709 137.936C213.709 138.272 213.84 138.557 214.101 138.79C214.372 139.023 214.717 139.14 215.137 139.14C215.651 139.14 216.099 139.033 216.481 138.818C216.864 138.594 217.163 138.295 217.377 137.922C217.592 137.549 217.699 137.133 217.699 136.676V134.772C217.699 134.324 217.536 133.96 217.209 133.68C216.883 133.4 216.458 133.26 215.935 133.26C215.478 133.26 215.077 133.377 214.731 133.61C214.386 133.834 214.129 134.128 213.961 134.492L213.009 133.974C213.149 133.657 213.369 133.367 213.667 133.106C213.975 132.845 214.325 132.639 214.717 132.49C215.109 132.331 215.515 132.252 215.935 132.252C216.486 132.252 216.971 132.359 217.391 132.574C217.821 132.789 218.152 133.087 218.385 133.47C218.628 133.843 218.749 134.277 218.749 134.772V139.924H217.699V138.426L217.853 138.58C217.723 138.86 217.517 139.117 217.237 139.35C216.967 139.574 216.645 139.756 216.271 139.896C215.907 140.027 215.506 140.092 215.067 140.092ZM224.465 143.004C223.952 143.004 223.476 142.925 223.037 142.766C222.608 142.607 222.234 142.388 221.917 142.108C221.609 141.837 221.371 141.52 221.203 141.156L222.169 140.638C222.318 140.993 222.584 141.301 222.967 141.562C223.35 141.823 223.84 141.954 224.437 141.954C224.894 141.954 225.314 141.865 225.697 141.688C226.08 141.511 226.388 141.249 226.621 140.904C226.854 140.559 226.971 140.134 226.971 139.63V137.964L227.139 138.118C226.878 138.659 226.49 139.079 225.977 139.378C225.464 139.667 224.904 139.812 224.297 139.812C223.597 139.812 222.967 139.644 222.407 139.308C221.847 138.972 221.404 138.519 221.077 137.95C220.76 137.371 220.601 136.732 220.601 136.032C220.601 135.323 220.76 134.683 221.077 134.114C221.404 133.545 221.842 133.092 222.393 132.756C222.953 132.42 223.588 132.252 224.297 132.252C224.904 132.252 225.454 132.392 225.949 132.672C226.453 132.952 226.85 133.33 227.139 133.806L226.971 134.1V132.42H228.021V139.63C228.021 140.274 227.867 140.848 227.559 141.352C227.26 141.865 226.84 142.267 226.299 142.556C225.767 142.855 225.156 143.004 224.465 143.004ZM224.353 138.762C224.838 138.762 225.277 138.641 225.669 138.398C226.061 138.146 226.374 137.815 226.607 137.404C226.85 136.984 226.971 136.527 226.971 136.032C226.971 135.537 226.85 135.085 226.607 134.674C226.374 134.254 226.061 133.923 225.669 133.68C225.277 133.428 224.838 133.302 224.353 133.302C223.858 133.302 223.41 133.428 223.009 133.68C222.608 133.923 222.29 134.249 222.057 134.66C221.833 135.071 221.721 135.528 221.721 136.032C221.721 136.527 221.833 136.984 222.057 137.404C222.29 137.815 222.603 138.146 222.995 138.398C223.396 138.641 223.849 138.762 224.353 138.762ZM233.595 140.092C232.895 140.092 232.26 139.924 231.691 139.588C231.131 139.243 230.687 138.771 230.361 138.174C230.034 137.577 229.871 136.9 229.871 136.144C229.871 135.388 230.029 134.721 230.347 134.142C230.664 133.554 231.093 133.092 231.635 132.756C232.185 132.42 232.801 132.252 233.483 132.252C234.024 132.252 234.505 132.355 234.925 132.56C235.354 132.756 235.718 133.027 236.017 133.372C236.315 133.708 236.544 134.091 236.703 134.52C236.861 134.94 236.941 135.374 236.941 135.822C236.941 135.915 236.936 136.023 236.927 136.144C236.917 136.256 236.903 136.373 236.885 136.494H230.543V135.514H236.283L235.779 135.934C235.863 135.421 235.802 134.963 235.597 134.562C235.401 134.151 235.116 133.829 234.743 133.596C234.369 133.353 233.949 133.232 233.483 133.232C233.016 133.232 232.582 133.353 232.181 133.596C231.789 133.839 231.481 134.179 231.257 134.618C231.033 135.047 230.944 135.561 230.991 136.158C230.944 136.755 231.037 137.278 231.271 137.726C231.513 138.165 231.84 138.505 232.251 138.748C232.671 138.991 233.119 139.112 233.595 139.112C234.145 139.112 234.607 138.981 234.981 138.72C235.354 138.459 235.657 138.132 235.891 137.74L236.787 138.216C236.637 138.552 236.409 138.865 236.101 139.154C235.793 139.434 235.424 139.663 234.995 139.84C234.575 140.008 234.108 140.092 233.595 140.092Z" fill="#979797"/>
<path d="M167.207 89.212V73.9575M167.207 73.9575L162.012 79.0423M167.207 73.9575L172.402 79.0423" stroke="#979797" stroke-width="2" stroke-linecap="round" stroke-linejoin="round"/>
<path d="M200.976 71.4152V84.1272C200.976 96.8393 195.781 101.924 182.793 101.924H167.207C154.22 101.924 149.024 96.8393 149.024 84.1272V68.8728C149.024 56.1607 154.22 51.0759 167.207 51.0759H180.195" stroke="#979797" stroke-width="2" stroke-linecap="round" stroke-linejoin="round"/>
<path d="M200.976 71.4152H190.586C182.793 71.4152 180.195 68.8728 180.195 61.2456V51.0759L200.976 71.4152Z" stroke="#979797" stroke-width="2" stroke-linecap="round" stroke-linejoin="round"/>
</svg>
