<svg width="32" height="32" viewBox="0 0 32 32" fill="none" xmlns="http://www.w3.org/2000/svg">
<path fill-rule="evenodd" clip-rule="evenodd" d="M4.82739 13.8202C4.82739 7.95525 9.81457 3.21484 15.8471 3.21484C21.8966 3.21484 26.8838 7.95525 26.8838 13.8202C26.8838 16.7756 25.79 19.5194 23.9898 21.845C22.0039 24.4102 19.5561 26.6453 16.8008 28.3997C16.1702 28.8051 15.6011 28.8357 14.909 28.3997C12.1381 26.6453 9.69028 24.4102 7.72132 21.845C5.91981 19.5194 4.82739 16.7756 4.82739 13.8202ZM12.2154 14.1509C12.2154 16.1157 13.8469 17.661 15.8472 17.661C17.8489 17.661 19.496 16.1157 19.496 14.1509C19.496 12.2015 17.8489 10.581 15.8472 10.581C13.8469 10.581 12.2154 12.2015 12.2154 14.1509Z" fill="#FF5722"/>
</svg>
