<svg width="23" height="24" viewBox="0 0 23 24" fill="none" xmlns="http://www.w3.org/2000/svg">
<path d="M6.19043 10.2177V8.30103C6.19043 5.12894 7.10883 2.55103 11.7008 2.55103C16.2929 2.55103 17.2113 5.12894 17.2113 8.30103V10.2177M11.7008 18.3635C12.3098 18.3635 12.8938 18.1111 13.3244 17.6618C13.755 17.2125 13.9969 16.6031 13.9969 15.9677C13.9969 15.3323 13.755 14.7229 13.3244 14.2736C12.8938 13.8243 12.3098 13.5719 11.7008 13.5719C11.0919 13.5719 10.5079 13.8243 10.0773 14.2736C9.64674 14.7229 9.40484 15.3323 9.40484 15.9677C9.40484 16.6031 9.64674 17.2125 10.0773 17.6618C10.5079 18.1111 11.0919 18.3635 11.7008 18.3635Z" stroke="#0A212B" stroke-width="1.5" stroke-linecap="round" stroke-linejoin="round"/>
<path d="M16.2929 21.7175H7.10886C3.43525 21.7175 2.51685 20.7592 2.51685 16.9259V15.0092C2.51685 11.1759 3.43525 10.2175 7.10886 10.2175H16.2929C19.9665 10.2175 20.8849 11.1759 20.8849 15.0092V16.9259C20.8849 20.7592 19.9665 21.7175 16.2929 21.7175Z" stroke="#0A212B" stroke-width="1.5" stroke-linecap="round" stroke-linejoin="round"/>
</svg>
