<svg width="17" height="21" viewBox="0 0 17 21" fill="none" xmlns="http://www.w3.org/2000/svg">
<g clip-path="url(#clip0_84_4353)">
<path d="M4.16663 8.84684V7.18018C4.16663 4.42184 4.86107 2.18018 8.33329 2.18018C11.8055 2.18018 12.5 4.42184 12.5 7.18018V8.84684M8.33329 15.9302C8.79374 15.9302 9.23532 15.7107 9.56091 15.32C9.88649 14.9293 10.0694 14.3994 10.0694 13.8468C10.0694 13.2943 9.88649 12.7644 9.56091 12.3737C9.23532 11.983 8.79374 11.7635 8.33329 11.7635C7.87285 11.7635 7.43126 11.983 7.10568 12.3737C6.78009 12.7644 6.59718 13.2943 6.59718 13.8468C6.59718 14.3994 6.78009 14.9293 7.10568 15.32C7.43126 15.7107 7.87285 15.9302 8.33329 15.9302Z" stroke="#B8B8B8" stroke-width="1.5" stroke-linecap="round" stroke-linejoin="round"/>
<path d="M11.8056 18.8472H4.86114C2.08336 18.8472 1.38892 18.0138 1.38892 14.6805V13.0138C1.38892 9.6805 2.08336 8.84717 4.86114 8.84717H11.8056C14.5834 8.84717 15.2778 9.6805 15.2778 13.0138V14.6805C15.2778 18.0138 14.5834 18.8472 11.8056 18.8472Z" stroke="#B8B8B8" stroke-width="1.5" stroke-linecap="round" stroke-linejoin="round"/>
</g>
<defs>
<clipPath id="clip0_84_4353">
<rect width="16.6667" height="20" fill="white" transform="translate(0 0.513672)"/>
</clipPath>
</defs>
</svg>
