<svg width="14" height="15" viewBox="0 0 14 15" fill="none" xmlns="http://www.w3.org/2000/svg">
<path d="M12.25 6.05433C12.25 9.95206 7 13.293 7 13.293C7 13.293 1.75 9.95206 1.75 6.05433C1.75 4.72524 2.30312 3.45058 3.28769 2.51076C4.27226 1.57095 5.60761 1.04297 7 1.04297C8.39239 1.04297 9.72774 1.57095 10.7123 2.51076C11.6969 3.45058 12.25 4.72524 12.25 6.05433Z" fill="#7E8CA0"/>
<path d="M7 7.75147C7.9665 7.75147 8.75 6.96796 8.75 6.00147C8.75 5.03497 7.9665 4.25146 7 4.25146C6.0335 4.25146 5.25 5.03497 5.25 6.00147C5.25 6.96796 6.0335 7.75147 7 7.75147Z" fill="white"/>
</svg>
