<svg width="41" height="42" viewBox="0 0 41 42" fill="none" xmlns="http://www.w3.org/2000/svg">
<circle cx="20.5" cy="20.668" r="20.5" fill="#FF5722"/>
<path d="M20.7623 22.4574C21.1311 22.4574 21.4964 22.3848 21.8371 22.2436C22.1779 22.1025 22.4875 21.8956 22.7483 21.6348C23.0091 21.374 23.216 21.0644 23.3572 20.7236C23.4983 20.3828 23.571 20.0176 23.571 19.6488C23.571 19.2799 23.4983 18.9147 23.3572 18.5739C23.216 18.2332 23.0091 17.9235 22.7483 17.6627C22.4875 17.4019 22.1779 17.195 21.8371 17.0539C21.4964 16.9127 21.1311 16.8401 20.7623 16.8401C20.0174 16.8401 19.303 17.136 18.7763 17.6627C18.2495 18.1895 17.9536 18.9039 17.9536 19.6488C17.9536 20.3937 18.2495 21.1081 18.7763 21.6348C19.303 22.1615 20.0174 22.4574 20.7623 22.4574Z" stroke="white" stroke-width="1.5"/>
<path d="M13.2185 18.0104C14.992 10.2145 26.5417 10.2235 28.3062 18.0194C29.3414 22.5925 26.4967 26.4634 24.0031 28.858C23.1318 29.6984 21.9684 30.168 20.7578 30.168C19.5473 30.168 18.3839 29.6984 17.5126 28.858C15.028 26.4634 12.1833 22.5835 13.2185 18.0104Z" stroke="white" stroke-width="1.5"/>
</svg>
