<svg width="16" height="19" viewBox="0 0 16 19" fill="none" xmlns="http://www.w3.org/2000/svg">
<path fill-rule="evenodd" clip-rule="evenodd" d="M0.981445 8.02853C0.981445 4.00364 4.25575 0.750488 8.21635 0.750488C12.1881 0.750488 15.4624 4.00364 15.4624 8.02853C15.4624 10.0567 14.7443 11.9397 13.5624 13.5356C12.2585 15.2961 10.6515 16.8299 8.84252 18.0339C8.4285 18.3121 8.05486 18.3331 7.60048 18.0339C5.78123 16.8299 4.17415 15.2961 2.88143 13.5356C1.69866 11.9397 0.981445 10.0567 0.981445 8.02853ZM5.8321 8.2551C5.8321 9.60344 6.90321 10.6639 8.21653 10.6639C9.53072 10.6639 10.6121 9.60344 10.6121 8.2551C10.6121 6.91727 9.53072 5.80518 8.21653 5.80518C6.90321 5.80518 5.8321 6.91727 5.8321 8.2551Z" fill="#FF5722"/>
</svg>
