<svg width="14" height="16" viewBox="0 0 14 16" fill="none" xmlns="http://www.w3.org/2000/svg">
<path d="M6.96997 8.82797C7.22525 8.82797 7.47804 8.7755 7.71389 8.67356C7.94974 8.57162 8.16405 8.4222 8.34456 8.23384C8.52507 8.04548 8.66827 7.82186 8.76596 7.57575C8.86365 7.32965 8.91393 7.06587 8.91393 6.79948C8.91393 6.5331 8.86365 6.26932 8.76596 6.02322C8.66827 5.77711 8.52507 5.55349 8.34456 5.36513C8.16405 5.17676 7.94974 5.02735 7.71389 4.92541C7.47804 4.82346 7.22525 4.771 6.96997 4.771C6.4544 4.771 5.95994 4.98471 5.59538 5.36513C5.23081 5.74554 5.026 6.2615 5.026 6.79948C5.026 7.33747 5.23081 7.85343 5.59538 8.23384C5.95994 8.61426 6.4544 8.82797 6.96997 8.82797Z" stroke="#FF5722" stroke-width="1.5"/>
<path d="M1.74867 5.61624C2.97611 -0.0141092 10.97 -0.00760748 12.1913 5.62275C12.9078 8.92554 10.9389 11.7212 9.213 13.4506C8.60992 14.0576 7.80472 14.3967 6.96685 14.3967C6.12897 14.3967 5.32377 14.0576 4.72069 13.4506C3.00103 11.7212 1.03214 8.91904 1.74867 5.61624Z" stroke="#FF5722" stroke-width="1.5"/>
</svg>
