<svg width="260" height="236" viewBox="0 0 260 236" fill="none" xmlns="http://www.w3.org/2000/svg">
<path d="M144.998 235.487C208.228 235.487 259.486 184.229 259.486 120.999C259.486 57.7688 208.228 6.51074 144.998 6.51074C81.7678 6.51074 30.5098 57.7688 30.5098 120.999C30.5098 184.229 81.7678 235.487 144.998 235.487Z" fill="#EEEAE7"/>
<path d="M132.969 144.45H101.46C100.351 144.475 99.2642 144.132 98.371 143.473C97.4779 142.815 96.8285 141.879 96.5246 140.811C96.3453 140.096 96.3313 139.349 96.4837 138.627C96.6361 137.905 96.9509 137.228 97.4042 136.646C97.8575 136.064 98.4374 135.593 99.0999 135.268C99.7623 134.944 100.49 134.774 101.228 134.773H132.737C133.846 134.748 134.933 135.091 135.826 135.75C136.719 136.408 137.368 137.344 137.672 138.411C137.852 139.127 137.866 139.874 137.713 140.596C137.561 141.318 137.246 141.995 136.793 142.577C136.339 143.159 135.759 143.63 135.097 143.955C134.435 144.279 133.707 144.449 132.969 144.45ZM165.523 107.676H101.46C100.351 107.702 99.2642 107.358 98.371 106.7C97.4779 106.041 96.8285 105.105 96.5246 104.038C96.3453 103.322 96.3313 102.575 96.4837 101.853C96.6361 101.132 96.9509 100.454 97.4042 99.8721C97.8575 99.2901 98.4374 98.819 99.0999 98.4945C99.7623 98.17 100.49 98.0006 101.228 97.9992H165.311C166.418 97.9716 167.503 98.3145 168.394 98.9737C169.284 99.6329 169.929 100.57 170.227 101.638C170.41 102.354 170.427 103.102 170.276 103.825C170.125 104.549 169.811 105.228 169.357 105.811C168.902 106.394 168.321 106.865 167.657 107.189C166.992 107.512 166.262 107.679 165.523 107.676ZM165.678 74.7738H101.46C100.351 74.7991 99.2642 74.4556 98.371 73.7971C97.4779 73.1386 96.8285 72.2024 96.5246 71.1351C96.3453 70.4196 96.3313 69.6726 96.4837 68.9508C96.6361 68.229 96.9509 67.5514 97.4042 66.9694C97.8575 66.3874 98.4374 65.9163 99.0999 65.5918C99.7623 65.2673 100.49 65.0979 101.228 65.0965H165.446C166.555 65.0712 167.642 65.4147 168.535 66.0732C169.428 66.7317 170.078 67.6679 170.381 68.7352C170.561 69.4507 170.575 70.1977 170.422 70.9195C170.27 71.6413 169.955 72.3189 169.502 72.9009C169.049 73.4829 168.469 73.954 167.806 74.2785C167.144 74.603 166.416 74.7724 165.678 74.7738ZM207.484 163.805H189.659C188.548 163.833 187.46 163.491 186.567 162.832C185.673 162.173 185.024 161.235 184.723 160.166C184.54 159.45 184.523 158.702 184.674 157.978C184.825 157.255 185.139 156.576 185.593 155.993C186.047 155.41 186.629 154.939 187.293 154.615C187.958 154.292 188.687 154.125 189.426 154.127H207.252C208.361 154.102 209.448 154.446 210.341 155.104C211.234 155.763 211.883 156.699 212.187 157.766C212.367 158.482 212.38 159.229 212.228 159.95C212.076 160.672 211.761 161.35 211.308 161.932C210.854 162.514 210.274 162.985 209.612 163.309C208.949 163.634 208.222 163.803 207.484 163.805Z" fill="#63605D"/>
<path d="M184.254 158.095V140.579C184.223 139.471 184.564 138.384 185.224 137.493C185.884 136.601 186.823 135.957 187.893 135.663C188.599 135.482 189.337 135.463 190.052 135.608C190.767 135.752 191.44 136.056 192.02 136.497C192.601 136.938 193.075 137.505 193.405 138.155C193.736 138.805 193.916 139.521 193.931 140.25V158.327C193.931 159.065 193.762 159.792 193.437 160.454C193.112 161.116 192.641 161.695 192.058 162.147C191.475 162.599 190.797 162.912 190.075 163.061C189.353 163.211 188.607 163.194 187.893 163.011C186.823 162.717 185.884 162.073 185.224 161.182C184.564 160.29 184.223 159.203 184.254 158.095Z" fill="#63605D"/>
<path d="M195.869 113.115V52.6514C195.854 48.7703 194.305 45.0525 191.561 42.3082C188.816 39.5638 185.099 38.0153 181.218 38H86.6514C82.7703 38.0153 79.0525 39.5638 76.3082 42.3082C73.5638 45.0525 72.0153 48.7703 72 52.6514V158.83C72.0153 162.711 73.5638 166.429 76.3082 169.174C79.0525 171.918 82.7703 173.466 86.6514 173.482H151.16C154.594 181.34 160.239 188.03 167.407 192.738C174.575 197.446 182.958 199.968 191.534 199.997C202.784 200.12 213.644 195.882 221.838 188.171C230.031 180.461 234.921 169.878 235.482 158.641C236.043 147.404 232.231 136.387 224.845 127.899C217.46 119.411 207.075 114.113 195.869 113.115ZM81.6773 158.83V52.6514C81.6773 51.3322 82.2013 50.067 83.1341 49.1341C84.067 48.2013 85.3322 47.6773 86.6514 47.6773H181.218C182.537 47.6773 183.802 48.2013 184.735 49.1341C185.668 50.067 186.192 51.3322 186.192 52.6514V113.25C175.608 114.515 165.852 119.605 158.758 127.561C151.665 135.517 147.724 145.791 147.676 156.45C147.679 158.633 147.841 160.813 148.16 162.972C148.16 163.263 148.257 163.533 148.315 163.804H86.6514C85.3322 163.804 84.067 163.28 83.1341 162.348C82.2013 161.415 81.6773 160.15 81.6773 158.83ZM190.605 190.32C184.688 190.29 178.882 188.721 173.755 185.769C168.628 182.817 164.356 178.583 161.36 173.482C159.556 170.486 158.249 167.218 157.489 163.804C157.315 163.069 157.179 162.314 157.063 161.559C156.819 159.867 156.696 158.16 156.695 156.45C156.712 148.397 159.59 140.613 164.815 134.486C170.041 128.36 177.275 124.291 185.224 123.005C188.426 122.495 191.684 122.443 194.901 122.85C203.446 123.938 211.256 128.24 216.741 134.882C222.226 141.524 224.975 150.006 224.428 158.602C223.88 167.199 220.078 175.264 213.794 181.156C207.511 187.049 199.219 190.326 190.605 190.32Z" fill="#63605D"/>
<path fill-rule="evenodd" clip-rule="evenodd" d="M108.627 61.6371C107.282 81.4439 92.5766 97.1798 73.9063 100.625L69.7949 59L108.627 61.6371Z" fill="#AFA8A2"/>
<path d="M69.2213 94.3449C88.1093 94.3449 103.421 79.0331 103.421 60.1451C103.421 41.2571 88.1093 25.9453 69.2213 25.9453C50.3333 25.9453 35.0215 41.2571 35.0215 60.1451C35.0215 79.0331 50.3333 94.3449 69.2213 94.3449Z" fill="#F2763D"/>
<path d="M77.6387 62.846C77.6387 59.2406 77.0901 56.4973 76.0711 54.5378C75.0522 52.5783 73.5631 51.5594 71.6036 51.5594C69.7225 51.5594 68.2334 52.4999 67.2145 54.5378C66.1956 56.4973 65.7252 59.2406 65.7252 62.846C65.7252 66.4514 66.1956 69.1947 67.2145 71.2325C68.2334 73.192 69.6441 74.2109 71.6036 74.2109C73.4847 74.2109 74.9738 73.192 76.0711 71.2325C77.0901 69.1947 77.6387 66.4514 77.6387 62.846ZM88.0631 62.846C88.0631 65.9812 87.6714 68.8028 86.8092 71.2325C86.0254 73.6622 84.8497 75.7 83.4389 77.4243C81.9497 79.0703 80.2253 80.3244 78.2658 81.1866C76.2279 82.0487 74.0334 82.4407 71.6821 82.4407C69.2523 82.4407 67.0577 82.0487 65.0199 81.1866C62.982 80.3244 61.2576 79.0703 59.8468 77.4243C58.436 75.7784 57.2602 73.7406 56.4765 71.2325C55.6927 68.8028 55.3008 65.9812 55.3008 62.846C55.3008 59.7109 55.6927 56.8893 56.4765 54.4595C57.2602 52.0298 58.436 49.9919 59.8468 48.3459C61.336 46.7 63.0604 45.4459 65.0199 44.5837C67.0577 43.7216 69.2523 43.3296 71.6821 43.3296C74.0334 43.3296 76.2279 43.7999 78.2658 44.5837C80.3036 45.4459 82.028 46.7 83.4389 48.3459C84.8497 49.9919 86.0254 52.0298 86.8092 54.4595C87.6714 56.8893 88.0631 59.7109 88.0631 62.846Z" fill="#ED3F07"/>
<path d="M75.5879 59.2723C75.5879 55.6669 75.0393 52.9235 74.0204 50.9641C73.0014 49.0046 71.5123 47.9856 69.5528 47.9856C67.6717 47.9856 66.1826 48.9262 65.1637 50.9641C64.1448 52.9235 63.6744 55.6669 63.6744 59.2723C63.6744 62.8777 64.1448 65.6209 65.1637 67.6588C66.1826 69.6182 67.5933 70.6372 69.5528 70.6372C71.4339 70.6372 72.9231 69.6182 74.0204 67.6588C75.0393 65.6209 75.5879 62.8777 75.5879 59.2723ZM86.0124 59.2723C86.0124 62.4074 85.6206 65.229 84.7584 67.6588C83.9746 70.0885 82.7989 72.1263 81.3881 73.8506C79.8989 75.4966 78.1745 76.7507 76.215 77.6128C74.1772 78.475 71.9826 78.867 69.6313 78.867C67.2015 78.867 65.0069 78.475 62.9691 77.6128C60.9312 76.7507 59.2068 75.4966 57.796 73.8506C56.3852 72.2047 55.2095 70.1669 54.4257 67.6588C53.6419 65.229 53.25 62.4074 53.25 59.2723C53.25 56.1371 53.6419 53.3155 54.4257 50.8858C55.2095 48.4561 56.3852 46.4182 57.796 44.7722C59.2852 43.1263 61.0096 41.8722 62.9691 41.01C65.0069 40.1478 67.2015 39.7559 69.6313 39.7559C71.9826 39.7559 74.1772 40.2262 76.215 41.01C78.2529 41.8722 79.9773 43.1263 81.3881 44.7722C82.7989 46.4182 83.9746 48.4561 84.7584 50.8858C85.6206 53.3155 86.0124 56.1371 86.0124 59.2723Z" fill="white"/>
<path d="M22.2103 41.6627C22.1087 41.6627 21.9867 41.6424 21.8851 41.6221L2.0293 36.8055C1.27733 36.6226 0.80988 35.8706 0.992789 35.1186C1.1757 34.3667 1.92767 33.8992 2.67963 34.0821L22.5354 38.8988C23.2874 39.0817 23.7549 39.8336 23.5719 40.5856C23.4094 41.2359 22.8403 41.6627 22.2103 41.6627Z" fill="#F2763D"/>
<path d="M44.3649 18.9134C43.7958 18.9134 43.2674 18.5679 43.0642 18.0191L37.0282 2.26862C36.7437 1.53699 37.1095 0.744382 37.8411 0.459856C38.5728 0.175331 39.3654 0.541149 39.6499 1.27279L45.6859 17.0233C45.9704 17.7549 45.6046 18.5476 44.873 18.8321C44.7104 18.8727 44.5275 18.9134 44.3649 18.9134Z" fill="#F2763D"/>
<path d="M28.9873 28.3297C28.6215 28.3297 28.276 28.1874 27.9914 27.9232L9.15178 9.08359C8.60305 8.53486 8.60305 7.64063 9.15178 7.11223C9.70051 6.5635 10.5947 6.5635 11.1231 7.11223L29.9628 25.9519C30.5116 26.5006 30.5116 27.3948 29.9628 27.9232C29.6986 28.1874 29.3531 28.3297 28.9873 28.3297Z" fill="#F2763D"/>
</svg>
