<svg width="260" height="236" viewBox="0 0 260 236" fill="none" xmlns="http://www.w3.org/2000/svg">
<path d="M144.998 235.487C208.228 235.487 259.486 184.229 259.486 120.999C259.486 57.769 208.228 6.51099 144.998 6.51099C81.7678 6.51099 30.5098 57.769 30.5098 120.999C30.5098 184.229 81.7678 235.487 144.998 235.487Z" fill="#EEEAE7"/>
<path fill-rule="evenodd" clip-rule="evenodd" d="M199.668 140.698L211.421 141.496L198.098 197.233L186.345 196.436L199.668 140.698Z" fill="#63605D"/>
<path fill-rule="evenodd" clip-rule="evenodd" d="M199.669 140.68C199.669 140.68 214.6 78.2256 219.662 57.0131C220.611 52.9976 224.353 50.2626 228.457 50.5413L247.004 51.8005C247.982 51.8668 248.864 52.3631 249.444 53.1443C250.024 53.9254 250.218 54.9204 250.001 55.8657C249.665 57.2829 249.272 58.8925 248.966 60.1808C248.598 61.7485 247.129 62.827 245.521 62.7179C240.505 62.3773 230.493 61.6975 230.493 61.6975L211.417 141.5L199.667 140.702L199.669 140.68Z" fill="#63605D"/>
<path fill-rule="evenodd" clip-rule="evenodd" d="M103.877 181.234L200.376 187.786L198.118 197.231L101.619 190.679L103.877 181.234Z" fill="#63605D"/>
<path fill-rule="evenodd" clip-rule="evenodd" d="M228.02 72.1764L74.8105 61.7745C74.8105 61.7745 80.6584 121.029 83.1076 145.662C83.7169 151.768 88.6172 156.537 94.7321 156.952C117.806 158.519 172.343 162.221 195.417 163.788C201.532 164.203 207.058 160.142 208.461 154.173C214.217 130.096 228.02 72.1764 228.02 72.1764Z" fill="#999693"/>
<path fill-rule="evenodd" clip-rule="evenodd" d="M119.035 90.6207L123.59 134.064C123.911 137.053 126.579 139.22 129.568 138.899C132.557 138.578 134.723 135.911 134.424 132.923L129.867 89.5016C129.546 86.5126 126.879 84.3461 123.891 84.6451C120.904 84.9441 118.736 87.6332 119.035 90.6207Z" fill="#41403E"/>
<path fill-rule="evenodd" clip-rule="evenodd" d="M119.461 94.6423L123.592 134.064C123.912 137.053 126.58 139.22 129.569 138.899C132.558 138.578 134.724 135.911 134.425 132.923L130.294 93.5016C129.974 90.5125 127.306 88.346 124.319 88.645C121.33 88.9657 119.162 91.6548 119.461 94.6423Z" fill="#63605D"/>
<path fill-rule="evenodd" clip-rule="evenodd" d="M169.715 92.1852L159.352 134.594C158.63 137.512 160.437 140.471 163.356 141.171C166.275 141.893 169.234 140.087 169.932 137.189L180.296 94.7581C181.018 91.8399 179.21 88.9026 176.292 88.1808C173.372 87.4808 170.437 89.2669 169.715 92.1852Z" fill="#41403E"/>
<path fill-rule="evenodd" clip-rule="evenodd" d="M168.743 96.1993L159.35 134.616C158.628 137.534 160.434 140.493 163.354 141.193C166.272 141.915 169.231 140.108 169.93 137.21L179.323 98.794C180.045 95.8757 178.239 92.9167 175.319 92.2167C172.401 91.4949 169.443 93.2796 168.743 96.1993Z" fill="#63605D"/>
<path d="M208.36 194.339C209.689 184.592 202.866 175.613 193.119 174.283C183.372 172.954 174.393 179.777 173.064 189.524C171.734 199.271 178.558 208.25 188.304 209.579C198.051 210.909 207.03 204.086 208.36 194.339Z" fill="#999693"/>
<path d="M196.253 192.694C196.671 189.634 194.529 186.815 191.469 186.398C188.41 185.981 185.591 188.123 185.174 191.182C184.756 194.242 186.898 197.06 189.958 197.478C193.017 197.895 195.836 195.753 196.253 192.694Z" fill="white"/>
<path d="M120.991 188.407C122.32 178.66 115.497 169.681 105.75 168.351C96.0033 167.022 87.0242 173.845 85.6946 183.592C84.365 193.339 91.1884 202.318 100.935 203.648C110.682 204.977 119.661 198.154 120.991 188.407Z" fill="#999693"/>
<path d="M108.884 186.762C109.302 183.702 107.16 180.884 104.1 180.466C101.041 180.049 98.2219 182.191 97.8045 185.25C97.3872 188.31 99.5291 191.129 102.589 191.546C105.648 191.963 108.467 189.821 108.884 186.762Z" fill="white"/>
<path fill-rule="evenodd" clip-rule="evenodd" d="M113.39 64.285C112.045 84.0918 97.3403 99.8277 78.67 103.273L74.5586 61.6479L113.39 64.285Z" fill="#63605D"/>
<path d="M69.2213 94.3448C88.1093 94.3448 103.421 79.033 103.421 60.145C103.421 41.257 88.1093 25.9452 69.2213 25.9452C50.3333 25.9452 35.0215 41.257 35.0215 60.145C35.0215 79.033 50.3333 94.3448 69.2213 94.3448Z" fill="#F2763D"/>
<path d="M77.6387 62.846C77.6387 59.2406 77.0901 56.4973 76.0711 54.5378C75.0522 52.5783 73.5631 51.5594 71.6036 51.5594C69.7225 51.5594 68.2334 52.4999 67.2145 54.5378C66.1956 56.4973 65.7252 59.2406 65.7252 62.846C65.7252 66.4514 66.1956 69.1947 67.2145 71.2325C68.2334 73.192 69.6441 74.2109 71.6036 74.2109C73.4847 74.2109 74.9738 73.192 76.0711 71.2325C77.0901 69.1947 77.6387 66.4514 77.6387 62.846ZM88.0631 62.846C88.0631 65.9812 87.6714 68.8028 86.8092 71.2325C86.0254 73.6622 84.8497 75.7 83.4389 77.4243C81.9497 79.0703 80.2253 80.3244 78.2658 81.1866C76.2279 82.0487 74.0334 82.4407 71.6821 82.4407C69.2523 82.4407 67.0577 82.0487 65.0199 81.1866C62.982 80.3244 61.2576 79.0703 59.8468 77.4243C58.436 75.7784 57.2602 73.7406 56.4765 71.2325C55.6927 68.8028 55.3008 65.9812 55.3008 62.846C55.3008 59.7109 55.6927 56.8893 56.4765 54.4595C57.2602 52.0298 58.436 49.9919 59.8468 48.3459C61.336 46.7 63.0604 45.4459 65.0199 44.5837C67.0577 43.7216 69.2523 43.3296 71.6821 43.3296C74.0334 43.3296 76.2279 43.7999 78.2658 44.5837C80.3036 45.4459 82.028 46.7 83.4389 48.3459C84.8497 49.9919 86.0254 52.0298 86.8092 54.4595C87.6714 56.8893 88.0631 59.7109 88.0631 62.846Z" fill="#ED3F07"/>
<path d="M75.5879 59.2722C75.5879 55.6667 75.0393 52.9234 74.0204 50.9639C73.0014 49.0045 71.5123 47.9855 69.5528 47.9855C67.6717 47.9855 66.1826 48.9261 65.1637 50.9639C64.1448 52.9234 63.6744 55.6667 63.6744 59.2722C63.6744 62.8776 64.1448 65.6208 65.1637 67.6586C66.1826 69.6181 67.5933 70.6371 69.5528 70.6371C71.4339 70.6371 72.9231 69.6181 74.0204 67.6586C75.0393 65.6208 75.5879 62.8776 75.5879 59.2722ZM86.0124 59.2722C86.0124 62.4073 85.6206 65.2289 84.7584 67.6586C83.9746 70.0884 82.7989 72.1262 81.3881 73.8505C79.8989 75.4964 78.1745 76.7505 76.215 77.6127C74.1772 78.4749 71.9826 78.8668 69.6313 78.8668C67.2015 78.8668 65.0069 78.4749 62.9691 77.6127C60.9312 76.7505 59.2068 75.4964 57.796 73.8505C56.3852 72.2045 55.2095 70.1668 54.4257 67.6586C53.6419 65.2289 53.25 62.4073 53.25 59.2722C53.25 56.137 53.6419 53.3154 54.4257 50.8857C55.2095 48.4559 56.3852 46.418 57.796 44.7721C59.2852 43.1261 61.0096 41.872 62.9691 41.0099C65.0069 40.1477 67.2015 39.7557 69.6313 39.7557C71.9826 39.7557 74.1772 40.2261 76.215 41.0099C78.2529 41.872 79.9773 43.1261 81.3881 44.7721C82.7989 46.418 83.9746 48.4559 84.7584 50.8857C85.6206 53.3154 86.0124 56.137 86.0124 59.2722Z" fill="white"/>
<path d="M22.2103 41.6625C22.1087 41.6625 21.9867 41.6422 21.8851 41.6218L2.0293 36.8052C1.27733 36.6223 0.80988 35.8703 0.992789 35.1184C1.1757 34.3664 1.92767 33.899 2.67963 34.0819L22.5354 38.8985C23.2874 39.0814 23.7549 39.8334 23.5719 40.5853C23.4094 41.2357 22.8403 41.6625 22.2103 41.6625Z" fill="#F2763D"/>
<path d="M44.3649 18.9134C43.7958 18.9134 43.2674 18.5679 43.0642 18.0191L37.0282 2.26862C36.7437 1.53699 37.1095 0.744382 37.8411 0.459856C38.5728 0.175331 39.3654 0.541149 39.6499 1.27279L45.6859 17.0233C45.9704 17.7549 45.6046 18.5476 44.873 18.8321C44.7104 18.8727 44.5275 18.9134 44.3649 18.9134Z" fill="#F2763D"/>
<path d="M28.9873 28.3298C28.6215 28.3298 28.276 28.1876 27.9914 27.9234L9.15178 9.08371C8.60305 8.53498 8.60305 7.64076 9.15178 7.11235C9.70051 6.56362 10.5947 6.56362 11.1231 7.11235L29.9628 25.952C30.5116 26.5007 30.5116 27.395 29.9628 27.9234C29.6986 28.1876 29.3531 28.3298 28.9873 28.3298Z" fill="#F2763D"/>
</svg>
