<svg width="23" height="27" viewBox="0 0 23 27" fill="none" xmlns="http://www.w3.org/2000/svg">
<path d="M10.4779 4.82922C6.85862 4.82922 3.91729 7.77055 3.91729 11.3898V14.5498C3.91729 15.2168 3.633 16.2337 3.29404 16.8023L2.0366 18.8907C1.26026 20.181 1.79604 21.6134 3.2175 22.0945C7.93018 23.669 13.0146 23.669 17.7273 22.0945C19.0503 21.6571 19.6299 20.0935 18.9082 18.8907L17.6508 16.8023C17.3227 16.2337 17.0384 15.2168 17.0384 14.5498V11.3898C17.0384 7.78148 14.0862 4.82922 10.4779 4.82922Z" stroke="#FF5722" stroke-width="1.5" stroke-miterlimit="10" stroke-linecap="round"/>
<path d="M12.5004 5.14628C11.1781 4.76969 9.77698 4.76969 8.45471 5.14628C8.77181 4.33714 9.55908 3.76855 10.4776 3.76855C11.396 3.76855 12.1833 4.33714 12.5004 5.14628Z" stroke="#FF5722" stroke-width="1.5" stroke-miterlimit="10" stroke-linecap="round" stroke-linejoin="round"/>
<path d="M13.7581 22.488C13.7581 24.2922 12.282 25.7683 10.4778 25.7683C9.58118 25.7683 8.75018 25.3966 8.15973 24.8061C7.54539 24.1908 7.19947 23.3575 7.19751 22.488" stroke="#FF5722" stroke-width="1.5" stroke-miterlimit="10"/>
<circle cx="16.8052" cy="6.26855" r="4.5" fill="#FF5722" stroke="white" stroke-width="2"/>
</svg>
