<svg width="24" height="25" viewBox="0 0 24 25" fill="none" xmlns="http://www.w3.org/2000/svg">
<path d="M12.0201 3.07788C8.71009 3.07788 6.02009 5.76788 6.02009 9.07788V11.9679C6.02009 12.5779 5.76009 13.5079 5.45009 14.0279L4.30009 15.9379C3.59009 17.1179 4.08009 18.4279 5.38009 18.8679C9.69009 20.3079 14.3401 20.3079 18.6501 18.8679C19.8601 18.4679 20.3901 17.0379 19.7301 15.9379L18.5801 14.0279C18.2801 13.5079 18.0201 12.5779 18.0201 11.9679V9.07788C18.0201 5.77788 15.3201 3.07788 12.0201 3.07788Z" stroke="white" stroke-width="1.5" stroke-miterlimit="10" stroke-linecap="round"/>
<path d="M13.8699 3.36791C12.6606 3.0235 11.3792 3.0235 10.1699 3.36791C10.4599 2.62791 11.1799 2.10791 12.0199 2.10791C12.8599 2.10791 13.5799 2.62791 13.8699 3.36791Z" stroke="white" stroke-width="1.5" stroke-miterlimit="10" stroke-linecap="round" stroke-linejoin="round"/>
<path d="M15.02 19.228C15.02 20.878 13.67 22.228 12.02 22.228C11.2 22.228 10.44 21.888 9.90002 21.348C9.33818 20.7853 9.02181 20.0232 9.02002 19.228" stroke="white" stroke-width="1.5" stroke-miterlimit="10"/>
</svg>
