<svg width="20" height="24" viewBox="0 0 20 24" fill="none" xmlns="http://www.w3.org/2000/svg">
<path d="M10.4779 1.82922C6.85862 1.82922 3.91729 4.77055 3.91729 8.3898V11.5498C3.91729 12.2168 3.633 13.2337 3.29404 13.8023L2.0366 15.8907C1.26026 17.181 1.79604 18.6134 3.2175 19.0945C7.93018 20.669 13.0146 20.669 17.7273 19.0945C19.0503 18.6571 19.6299 17.0935 18.9082 15.8907L17.6508 13.8023C17.3227 13.2337 17.0384 12.2168 17.0384 11.5498V8.3898C17.0384 4.78148 14.0862 1.82922 10.4779 1.82922Z" stroke="#FF5722" stroke-width="1.5" stroke-miterlimit="10" stroke-linecap="round"/>
<path d="M12.5004 2.14628C11.1781 1.76969 9.77698 1.76969 8.45471 2.14628C8.77181 1.33714 9.55908 0.768555 10.4776 0.768555C11.396 0.768555 12.1833 1.33714 12.5004 2.14628Z" stroke="#FF5722" stroke-width="1.5" stroke-miterlimit="10" stroke-linecap="round" stroke-linejoin="round"/>
<path d="M13.7581 19.488C13.7581 21.2922 12.282 22.7683 10.4778 22.7683C9.58118 22.7683 8.75018 22.3966 8.15973 21.8061C7.54539 21.1908 7.19947 20.3575 7.19751 19.488" stroke="#FF5722" stroke-width="1.5" stroke-miterlimit="10"/>
</svg>
