<svg width="19" height="22" viewBox="0 0 19 22" fill="none" xmlns="http://www.w3.org/2000/svg">
<path d="M13.4485 11.6404C10.6885 11.6404 8.44849 13.8804 8.44849 16.6404C8.44849 19.4004 10.6885 21.6404 13.4485 21.6404C16.2085 21.6404 18.4485 19.4004 18.4485 16.6404C18.4485 13.8804 16.2085 11.6404 13.4485 11.6404ZM15.0985 18.9904L12.9485 16.8404V13.6404H13.9485V16.4304L15.7985 18.2804L15.0985 18.9904ZM14.4485 2.64038H11.2685C10.8485 1.48038 9.74849 0.640381 8.44849 0.640381C7.14849 0.640381 6.04849 1.48038 5.62849 2.64038H2.44849C1.34849 2.64038 0.448486 3.54038 0.448486 4.64038V19.6404C0.448486 20.7404 1.34849 21.6404 2.44849 21.6404H8.55849C7.96686 21.0661 7.48557 20.3883 7.13849 19.6404H2.44849V4.64038H4.44849V7.64038H12.4485V4.64038H14.4485V9.72038C15.1585 9.82038 15.8285 10.0304 16.4485 10.3204V4.64038C16.4485 3.54038 15.5485 2.64038 14.4485 2.64038ZM8.44849 4.64038C7.89849 4.64038 7.44849 4.19038 7.44849 3.64038C7.44849 3.09038 7.89849 2.64038 8.44849 2.64038C8.99849 2.64038 9.44849 3.09038 9.44849 3.64038C9.44849 4.19038 8.99849 4.64038 8.44849 4.64038Z" fill="white"/>
</svg>
