<svg width="18" height="21" viewBox="0 0 18 21" fill="none" xmlns="http://www.w3.org/2000/svg">
<path d="M13.9363 2.69545V1.21281C13.9363 0.82314 13.6132 0.5 13.2235 0.5C12.8339 0.5 12.5107 0.82314 12.5107 1.21281V2.63843H6.33303V1.21281C6.33303 0.82314 6.00989 0.5 5.62023 0.5C5.23056 0.5 4.90742 0.82314 4.90742 1.21281V2.69545C2.3413 2.93306 1.09626 4.46322 0.906181 6.7347C0.887172 7.01032 1.11527 7.23842 1.38139 7.23842H17.4624C17.738 7.23842 17.9661 7.00082 17.9376 6.7347C17.7475 4.46322 16.5024 2.93306 13.9363 2.69545ZM17.0252 8.66404H1.81858C1.29585 8.66404 0.868164 9.09173 0.868164 9.61445V15.469C0.868164 18.3202 2.29378 20.2211 5.62023 20.2211H13.2235C16.55 20.2211 17.9756 18.3202 17.9756 15.469V9.61445C17.9756 9.09173 17.5479 8.66404 17.0252 8.66404ZM6.77022 16.619C6.7227 16.657 6.67518 16.7045 6.62766 16.733C6.57064 16.7711 6.51361 16.7996 6.45659 16.8186C6.39956 16.8471 6.34254 16.8661 6.28551 16.8756C6.21899 16.8851 6.16196 16.8946 6.09543 16.8946C5.97188 16.8946 5.84832 16.8661 5.73427 16.8186C5.61072 16.7711 5.51568 16.7045 5.42064 16.619C5.24956 16.4384 5.14502 16.1913 5.14502 15.9442C5.14502 15.6971 5.24956 15.45 5.42064 15.2694C5.51568 15.1839 5.61072 15.1173 5.73427 15.0698C5.90535 14.9938 6.09543 14.9748 6.28551 15.0128C6.34254 15.0223 6.39956 15.0413 6.45659 15.0698C6.51361 15.0888 6.57064 15.1173 6.62766 15.1554L6.77022 15.2694C6.9413 15.45 7.04584 15.6971 7.04584 15.9442C7.04584 16.1913 6.9413 16.4384 6.77022 16.619ZM6.77022 13.2926C6.58965 13.4636 6.34254 13.5682 6.09543 13.5682C5.84832 13.5682 5.60122 13.4636 5.42064 13.2926C5.24956 13.112 5.14502 12.8649 5.14502 12.6178C5.14502 12.3707 5.24956 12.1235 5.42064 11.943C5.68675 11.6768 6.10494 11.5913 6.45659 11.7434C6.58014 11.7909 6.68469 11.8574 6.77022 11.943C6.9413 12.1235 7.04584 12.3707 7.04584 12.6178C7.04584 12.8649 6.9413 13.112 6.77022 13.2926ZM10.0967 16.619C9.91609 16.7901 9.66898 16.8946 9.42188 16.8946C9.17477 16.8946 8.92766 16.7901 8.74708 16.619C8.57601 16.4384 8.47146 16.1913 8.47146 15.9442C8.47146 15.6971 8.57601 15.45 8.74708 15.2694C9.09873 14.9178 9.74502 14.9178 10.0967 15.2694C10.2677 15.45 10.3723 15.6971 10.3723 15.9442C10.3723 16.1913 10.2677 16.4384 10.0967 16.619ZM10.0967 13.2926L9.95411 13.4066C9.89708 13.4446 9.84006 13.4731 9.78303 13.4921C9.72601 13.5206 9.66898 13.5397 9.61196 13.5492C9.54543 13.5587 9.4884 13.5682 9.42188 13.5682C9.17477 13.5682 8.92766 13.4636 8.74708 13.2926C8.57601 13.112 8.47146 12.8649 8.47146 12.6178C8.47146 12.3707 8.57601 12.1235 8.74708 11.943C8.83262 11.8574 8.93716 11.7909 9.06072 11.7434C9.41237 11.5913 9.83055 11.6768 10.0967 11.943C10.2677 12.1235 10.3723 12.3707 10.3723 12.6178C10.3723 12.8649 10.2677 13.112 10.0967 13.2926ZM13.4231 16.619C13.2425 16.7901 12.9954 16.8946 12.7483 16.8946C12.5012 16.8946 12.2541 16.7901 12.0735 16.619C11.9025 16.4384 11.7979 16.1913 11.7979 15.9442C11.7979 15.6971 11.9025 15.45 12.0735 15.2694C12.4252 14.9178 13.0715 14.9178 13.4231 15.2694C13.5942 15.45 13.6987 15.6971 13.6987 15.9442C13.6987 16.1913 13.5942 16.4384 13.4231 16.619ZM13.4231 13.2926L13.2805 13.4066C13.2235 13.4446 13.1665 13.4731 13.1095 13.4921C13.0525 13.5206 12.9954 13.5397 12.9384 13.5492C12.8719 13.5587 12.8053 13.5682 12.7483 13.5682C12.5012 13.5682 12.2541 13.4636 12.0735 13.2926C11.9025 13.112 11.7979 12.8649 11.7979 12.6178C11.7979 12.3707 11.9025 12.1235 12.0735 11.943C12.1686 11.8574 12.2636 11.7909 12.3872 11.7434C12.5582 11.6673 12.7483 11.6483 12.9384 11.6864C12.9954 11.6959 13.0525 11.7149 13.1095 11.7434C13.1665 11.7624 13.2235 11.7909 13.2805 11.8289L13.4231 11.943C13.5942 12.1235 13.6987 12.3707 13.6987 12.6178C13.6987 12.8649 13.5942 13.112 13.4231 13.2926Z" fill="#FF5722"/>
</svg>
