<svg width="19" height="21" viewBox="0 0 19 21" fill="none" xmlns="http://www.w3.org/2000/svg">
<path fill-rule="evenodd" clip-rule="evenodd" d="M12.8159 0.313965C13.1954 0.313965 13.5034 0.621965 13.5034 1.00146L13.5038 1.77862C14.8423 1.87039 15.9539 2.32884 16.7406 3.11722C17.5995 3.97981 18.0515 5.22006 18.0469 6.70781V15.0706C18.0469 18.1249 16.1072 20.0224 12.986 20.0224H5.23279C2.11154 20.0224 0.171875 18.0983 0.171875 15.0009V6.70597C0.171875 3.82507 1.90168 1.97583 4.72284 1.77894L4.7234 1.00146C4.7234 0.621965 5.0314 0.313965 5.4109 0.313965C5.7904 0.313965 6.0984 0.621965 6.0984 1.00146L6.09812 1.76138H12.128L12.1284 1.00146C12.1284 0.621965 12.4364 0.313965 12.8159 0.313965ZM16.6719 8.47596H1.54687V15.0009C1.54687 17.3531 2.85587 18.6474 5.23279 18.6474H12.986C15.3629 18.6474 16.6719 17.3769 16.6719 15.0706L16.6719 8.47596ZM13.1896 14.2439C13.5691 14.2439 13.8771 14.5519 13.8771 14.9314C13.8771 15.3109 13.5691 15.6189 13.1896 15.6189C12.8101 15.6189 12.4985 15.3109 12.4985 14.9314C12.4985 14.5519 12.8019 14.2439 13.1814 14.2439H13.1896ZM9.12193 14.2439C9.50143 14.2439 9.80943 14.5519 9.80943 14.9314C9.80943 15.3109 9.50143 15.6189 9.12193 15.6189C8.74243 15.6189 8.43077 15.3109 8.43077 14.9314C8.43077 14.5519 8.73418 14.2439 9.11368 14.2439H9.12193ZM5.0457 14.2439C5.4252 14.2439 5.7332 14.5519 5.7332 14.9314C5.7332 15.3109 5.4252 15.6189 5.0457 15.6189C4.6662 15.6189 4.35362 15.3109 4.35362 14.9314C4.35362 14.5519 4.65795 14.2439 5.03745 14.2439H5.0457ZM13.1896 10.6811C13.5691 10.6811 13.8771 10.9891 13.8771 11.3686C13.8771 11.7481 13.5691 12.0561 13.1896 12.0561C12.8101 12.0561 12.4985 11.7481 12.4985 11.3686C12.4985 10.9891 12.8019 10.6811 13.1814 10.6811H13.1896ZM9.12193 10.6811C9.50143 10.6811 9.80943 10.9891 9.80943 11.3686C9.80943 11.7481 9.50143 12.0561 9.12193 12.0561C8.74243 12.0561 8.43077 11.7481 8.43077 11.3686C8.43077 10.9891 8.73418 10.6811 9.11368 10.6811H9.12193ZM5.0457 10.6811C5.4252 10.6811 5.7332 10.9891 5.7332 11.3686C5.7332 11.7481 5.4252 12.0561 5.0457 12.0561C4.6662 12.0561 4.35362 11.7481 4.35362 11.3686C4.35362 10.9891 4.65795 10.6811 5.03745 10.6811H5.0457ZM12.128 3.13638H6.09812L6.0984 4.01821C6.0984 4.39771 5.7904 4.70571 5.4109 4.70571C5.0314 4.70571 4.7234 4.39771 4.7234 4.01821L4.72291 3.15719C2.66937 3.3297 1.54687 4.5745 1.54687 6.70597V7.10096H16.6719L16.6719 6.70597C16.6755 5.57389 16.3712 4.69389 15.7671 4.08889C15.2368 3.55705 14.4617 3.23942 13.5042 3.15763L13.5034 4.01821C13.5034 4.39771 13.1954 4.70571 12.8159 4.70571C12.4364 4.70571 12.1284 4.39771 12.1284 4.01821L12.128 3.13638Z" fill="#68686E"/>
</svg>
