<svg width="21" height="21" viewBox="0 0 21 21" fill="none" xmlns="http://www.w3.org/2000/svg">
<path d="M15.8298 10.5572C16.6769 9.71087 17.2926 8.66121 17.6179 7.50876C17.9432 6.35632 17.9673 5.13965 17.6878 3.97525L20.1828 2.90525C20.2588 2.87263 20.3418 2.85941 20.4243 2.86679C20.5067 2.87416 20.5861 2.90189 20.6552 2.94749C20.7243 2.99309 20.781 3.05513 20.8202 3.12804C20.8594 3.20096 20.8798 3.28246 20.8798 3.36525V17.6072L13.8798 20.6072L7.87976 17.6072L1.57676 20.3082C1.50067 20.3409 1.41768 20.3541 1.33523 20.3467C1.25277 20.3393 1.17344 20.3116 1.10435 20.266C1.03526 20.2204 0.978567 20.1584 0.939368 20.0854C0.900169 20.0125 0.879687 19.931 0.879761 19.8482V5.60725L4.00876 4.26625C3.7886 5.39182 3.84867 6.55428 4.18367 7.65117C4.51866 8.74806 5.11831 9.74573 5.92976 10.5562L10.8798 15.5072L15.8298 10.5572ZM14.4158 9.14325L10.8798 12.6772L7.34376 9.14225C6.64463 8.44293 6.16856 7.55201 5.97574 6.58214C5.78292 5.61228 5.88201 4.60701 6.26049 3.69346C6.63897 2.7799 7.27983 1.99909 8.10205 1.44974C8.92426 0.900389 9.89091 0.607178 10.8798 0.607178C11.8686 0.607178 12.8353 0.900389 13.6575 1.44974C14.4797 1.99909 15.1206 2.7799 15.499 3.69346C15.8775 4.60701 15.9766 5.61228 15.7838 6.58214C15.591 7.55201 15.1149 8.44293 14.4158 9.14225V9.14325Z" fill="white"/>
</svg>
