<svg width="18" height="21" viewBox="0 0 18 21" fill="none" xmlns="http://www.w3.org/2000/svg">
<path d="M13.056 11.1754C10.4274 11.1754 8.2941 13.3087 8.2941 15.9373C8.2941 18.5659 10.4274 20.6992 13.056 20.6992C15.6846 20.6992 17.8179 18.5659 17.8179 15.9373C17.8179 13.3087 15.6846 11.1754 13.056 11.1754ZM14.6274 18.1754L12.5798 16.1278V13.0802H13.5322V15.7373L15.2941 17.4992L14.6274 18.1754ZM14.0084 2.60398H10.9798C10.5798 1.49922 9.53219 0.699219 8.2941 0.699219C7.056 0.699219 6.00838 1.49922 5.60838 2.60398H2.57981C1.53219 2.60398 0.675049 3.46112 0.675049 4.50874V18.7945C0.675049 19.8421 1.53219 20.6992 2.57981 20.6992H8.39886C7.8354 20.1523 7.37703 19.5067 7.04648 18.7945H2.57981V4.50874H4.48457V7.36589H12.1036V4.50874H14.0084V9.34684C14.6846 9.44208 15.3227 9.64208 15.9131 9.91827V4.50874C15.9131 3.46112 15.056 2.60398 14.0084 2.60398ZM8.2941 4.50874C7.77029 4.50874 7.34171 4.08017 7.34171 3.55636C7.34171 3.03255 7.77029 2.60398 8.2941 2.60398C8.81791 2.60398 9.24648 3.03255 9.24648 3.55636C9.24648 4.08017 8.81791 4.50874 8.2941 4.50874Z" fill="#FF5722"/>
</svg>
