<svg width="21" height="21" viewBox="0 0 21 21" fill="none" xmlns="http://www.w3.org/2000/svg">
<path d="M15.1963 10.8837C16.0435 10.0373 16.6591 8.98763 16.9845 7.83518C17.3098 6.68273 17.3338 5.46607 17.0543 4.30166L19.5493 3.23166C19.6254 3.19904 19.7084 3.18583 19.7909 3.1932C19.8733 3.20058 19.9527 3.22831 20.0218 3.27391C20.0908 3.3195 20.1475 3.38155 20.1867 3.45446C20.2259 3.52737 20.2464 3.60888 20.2463 3.69166V17.9337L13.2463 20.9337L7.24634 17.9337L0.943338 20.6347C0.867252 20.6673 0.784257 20.6805 0.701804 20.6731C0.61935 20.6657 0.540017 20.638 0.470925 20.5924C0.401833 20.5468 0.345144 20.4848 0.305945 20.4119C0.266746 20.339 0.246264 20.2574 0.246338 20.1747V5.93366L3.37534 4.59266C3.15518 5.71824 3.21525 6.88069 3.55024 7.97759C3.88524 9.07448 4.48489 10.0721 5.29634 10.8827L10.2463 15.8337L15.1963 10.8837ZM13.7823 9.46966L10.2463 13.0037L6.71034 9.46866C6.01121 8.76935 5.53513 7.87843 5.34232 6.90856C5.1495 5.93869 5.24859 4.93343 5.62707 4.01987C6.00554 3.10632 6.64641 2.3255 7.46862 1.77615C8.29084 1.22681 9.25749 0.933594 10.2463 0.933594C11.2352 0.933594 12.2018 1.22681 13.0241 1.77615C13.8463 2.3255 14.4871 3.10632 14.8656 4.01987C15.2441 4.93343 15.3432 5.93869 15.1504 6.90856C14.9575 7.87843 14.4815 8.76935 13.7823 9.46866V9.46966Z" fill="#FF5722"/>
</svg>
