<svg width="20" height="21" viewBox="0 0 20 21" fill="none" xmlns="http://www.w3.org/2000/svg">
<path d="M10.2461 0.167969C8.51925 0.167969 6.9973 1.30943 6.50949 2.96797C5.99242 2.73382 5.44608 2.60699 4.88022 2.60699C3.84523 2.60699 2.85263 3.01814 2.12078 3.74999C1.38893 4.48184 0.977783 5.47444 0.977783 6.50943C0.980095 7.37366 1.26851 8.2128 1.798 8.89584C2.32748 9.57888 3.06824 10.0674 3.90461 10.285V17.2411H16.5875V10.285C18.3046 9.83626 19.5144 8.28504 19.5144 6.50943C19.5144 5.47444 19.1032 4.48184 18.3714 3.74999C17.6395 3.01814 16.6469 2.60699 15.6119 2.60699C15.0461 2.60699 14.4997 2.73382 13.9827 2.96797C13.4949 1.30943 11.9729 0.167969 10.2461 0.167969ZM9.75827 8.94846H10.7339V15.7777H9.75827V8.94846ZM6.83144 10.8997H7.80705V15.7777H6.83144V10.8997ZM12.6851 10.8997H13.6607V15.7777H12.6851V10.8997ZM3.90461 18.2167V19.1924C3.90461 19.4511 4.0074 19.6993 4.19036 19.8822C4.37332 20.0652 4.62147 20.168 4.88022 20.168H15.6119C15.8707 20.168 16.1188 20.0652 16.3018 19.8822C16.4848 19.6993 16.5875 19.4511 16.5875 19.1924V18.2167H3.90461Z" fill="#FF5722"/>
</svg>
