<svg width="20" height="22" viewBox="0 0 20 22" fill="none" xmlns="http://www.w3.org/2000/svg">
<path d="M10.145 0.890381C8.37502 0.890381 6.81502 2.06038 6.31502 3.76038C5.78502 3.52038 5.22502 3.39038 4.64502 3.39038C3.58415 3.39038 2.56674 3.81181 1.81659 4.56195C1.06645 5.3121 0.64502 6.32951 0.64502 7.39038C0.647389 8.27622 0.943014 9.13634 1.48574 9.83645C2.02846 10.5366 2.78774 11.0373 3.64502 11.2604V18.3904H16.645V11.2604C18.405 10.8004 19.645 9.21038 19.645 7.39038C19.645 6.32951 19.2236 5.3121 18.4734 4.56195C17.7233 3.81181 16.7059 3.39038 15.645 3.39038C15.065 3.39038 14.505 3.52038 13.975 3.76038C13.475 2.06038 11.915 0.890381 10.145 0.890381ZM9.64502 9.89038H10.645V16.8904H9.64502V9.89038ZM6.64502 11.8904H7.64502V16.8904H6.64502V11.8904ZM12.645 11.8904H13.645V16.8904H12.645V11.8904ZM3.64502 19.3904V20.3904C3.64502 20.6556 3.75038 20.91 3.93791 21.0975C4.12545 21.285 4.3798 21.3904 4.64502 21.3904H15.645C15.9102 21.3904 16.1646 21.285 16.3521 21.0975C16.5397 20.91 16.645 20.6556 16.645 20.3904V19.3904H3.64502Z" fill="#A0A0A6"/>
</svg>
