<svg width="21" height="21" viewBox="0 0 21 21" fill="none" xmlns="http://www.w3.org/2000/svg">
<path d="M15.7913 10.0904C16.6384 9.24407 17.2541 8.19441 17.5794 7.04197C17.9048 5.88952 17.9288 4.67286 17.6493 3.50845L20.1443 2.43845C20.2204 2.40583 20.3034 2.39262 20.3858 2.39999C20.4683 2.40736 20.5476 2.43509 20.6167 2.48069C20.6858 2.52629 20.7425 2.58833 20.7817 2.66125C20.8209 2.73416 20.8414 2.81567 20.8413 2.89845V17.1404L13.8413 20.1404L7.84131 17.1404L1.53831 19.8414C1.46222 19.8741 1.37923 19.8873 1.29677 19.8799C1.21432 19.8725 1.13499 19.8448 1.0659 19.7992C0.996804 19.7536 0.940114 19.6916 0.900916 19.6187C0.861717 19.5457 0.841235 19.4642 0.841309 19.3814V5.14045L3.97031 3.79945C3.75015 4.92503 3.81022 6.08748 4.14521 7.18437C4.48021 8.28127 5.07986 9.27893 5.89131 10.0894L10.8413 15.0404L15.7913 10.0904ZM14.3773 8.67645L10.8413 12.2104L7.30531 8.67545C6.60618 7.97613 6.13011 7.08522 5.93729 6.11535C5.74447 5.14548 5.84356 4.14021 6.22204 3.22666C6.60051 2.31311 7.24138 1.53229 8.06359 0.982941C8.88581 0.433592 9.85246 0.140381 10.8413 0.140381C11.8302 0.140381 12.7968 0.433592 13.619 0.982941C14.4412 1.53229 15.0821 2.31311 15.4606 3.22666C15.8391 4.14021 15.9382 5.14548 15.7453 6.11535C15.5525 7.08522 15.0764 7.97613 14.3773 8.67545V8.67645Z" fill="#A0A0A6"/>
</svg>
