<svg width="18" height="18" viewBox="0 0 18 18" fill="none" xmlns="http://www.w3.org/2000/svg">
<path d="M17.9407 12.0427V15.7492C17.9438 16.0216 17.8842 16.2915 17.7661 16.5402C17.6479 16.7889 17.4741 17.0105 17.2564 17.1898C17.0388 17.3691 16.7826 17.5017 16.5054 17.5786C16.2282 17.6556 15.9366 17.6749 15.6507 17.6354C11.6877 17.1553 8.00666 15.4452 5.18768 12.7746C2.36871 10.104 0.572016 6.62466 0.0807117 2.88489C0.0389334 2.61605 0.0592311 2.34187 0.140216 2.08112C0.221201 1.82036 0.360962 1.57919 0.549934 1.37409C0.738905 1.169 0.972627 1.00483 1.23511 0.892826C1.49758 0.780818 1.78262 0.723613 2.07071 0.725127H5.94071C6.18793 0.723712 6.42693 0.808713 6.61161 0.963724C6.79628 1.11873 6.91352 1.33277 6.94071 1.56451C7.03995 2.80055 7.37889 4.00891 7.94071 5.12953C8.03705 5.34176 8.04751 5.57995 7.9701 5.79896C7.89269 6.01797 7.7328 6.20261 7.52071 6.31787L6.66071 6.78001C6.53675 6.84431 6.42867 6.93268 6.3436 7.03929C6.25853 7.1459 6.19842 7.26832 6.16723 7.39847C6.13604 7.52861 6.13448 7.66351 6.16266 7.79426C6.19085 7.92502 6.24812 8.04864 6.33071 8.15697C7.32004 9.52374 8.57153 10.7041 10.0207 11.6371C10.1356 11.715 10.2667 11.769 10.4053 11.7956C10.5439 11.8222 10.687 11.8207 10.825 11.7913C10.9629 11.7619 11.0928 11.7052 11.2058 11.625C11.3188 11.5447 11.4125 11.4428 11.4807 11.3259L11.9707 10.5148C12.1002 10.3121 12.3058 10.1628 12.5466 10.0964C12.7874 10.03 13.0459 10.0515 13.2707 10.1564C14.4589 10.6863 15.7401 11.0059 17.0507 11.0995C17.2964 11.1252 17.5234 11.2358 17.6877 11.4099C17.8521 11.5841 17.9422 11.8095 17.9407 12.0427Z" fill="#FF5722"/>
</svg>
