<svg width="15" height="15" viewBox="0 0 15 15" fill="none" xmlns="http://www.w3.org/2000/svg">
<path d="M13.9089 11.231C13.9089 11.453 13.8596 11.6811 13.7548 11.903C13.65 12.1249 13.5144 12.3346 13.3356 12.5318C13.0335 12.8647 12.7006 13.1052 12.3245 13.2593C11.9546 13.4134 11.5539 13.4936 11.1223 13.4936C10.4935 13.4936 9.82152 13.3456 9.11255 13.0435C8.40357 12.7414 7.6946 12.3346 6.99179 11.8229C6.27548 11.2989 5.59954 10.7219 4.96967 10.0967C4.34624 9.46907 3.77125 8.79516 3.24963 8.0807C2.7441 7.37789 2.33721 6.67508 2.04129 5.97844C1.74537 5.27563 1.59741 4.60364 1.59741 3.96248C1.59741 3.54326 1.67139 3.14254 1.81935 2.77264C1.96731 2.39657 2.20158 2.05133 2.52833 1.74308C2.92289 1.35469 3.35444 1.16357 3.81065 1.16357C3.98327 1.16357 4.15589 1.20056 4.31001 1.27454C4.4703 1.34852 4.6121 1.45949 4.72307 1.61978L6.15335 3.63574C6.26432 3.78986 6.34446 3.93166 6.39995 4.06729C6.45543 4.19675 6.48626 4.32622 6.48626 4.44335C6.48626 4.59131 6.4431 4.73927 6.35679 4.88107C6.27665 5.02286 6.15951 5.17082 6.01155 5.31878L5.54301 5.80582C5.4752 5.87363 5.44437 5.95378 5.44437 6.05242C5.44437 6.10174 5.45054 6.14489 5.46287 6.19421C5.48136 6.24353 5.49986 6.28052 5.51219 6.31751C5.62316 6.52096 5.81427 6.78605 6.08553 7.10663C6.36296 7.42721 6.65888 7.75396 6.97946 8.0807C7.31237 8.40745 7.63295 8.70953 7.95969 8.98696C8.28027 9.25822 8.54537 9.44317 8.75498 9.55414C8.7858 9.56647 8.82279 9.58496 8.86595 9.60346C8.91527 9.62195 8.96459 9.62812 9.02007 9.62812C9.12488 9.62812 9.20502 9.59113 9.27284 9.52331L9.74138 9.06094C9.8955 8.90681 10.0435 8.78968 10.1853 8.7157C10.3271 8.62939 10.4688 8.58623 10.623 8.58623C10.7401 8.58623 10.8634 8.61089 10.999 8.66638C11.1347 8.72186 11.2765 8.80201 11.4306 8.90681L13.4712 10.3556C13.6315 10.4666 13.7425 10.596 13.8103 10.7501C13.8719 10.9043 13.9089 11.0584 13.9089 11.231Z" stroke="#FF5722" stroke-width="1.5" stroke-miterlimit="10"/>
</svg>
