<svg width="18" height="21" viewBox="0 0 18 21" fill="none" xmlns="http://www.w3.org/2000/svg">
<path d="M11.3726 10.6777H11.2055L11.0542 10.7487C10.4272 11.0428 9.73215 11.209 9.00153 11.209C8.27156 11.209 7.57933 11.0431 6.94774 10.7482L6.7969 10.6777H6.63043H6.08725C3.24514 10.6777 0.96582 13.027 0.96582 15.8902V17.2715C0.96582 18.5509 1.9864 19.6152 3.27705 19.6152H14.726C16.0167 19.6152 17.0372 18.5509 17.0372 17.2715V15.8902C17.0372 13.027 14.7579 10.6777 11.9158 10.6777H11.3726ZM9.00153 11.1152C11.7298 11.1152 13.9148 8.86225 13.9148 6.11523C13.9148 3.36821 11.7298 1.11523 9.00153 1.11523C6.27326 1.11523 4.08827 3.36821 4.08827 6.11523C4.08827 8.86225 6.27326 11.1152 9.00153 11.1152Z" fill="#FF5722" stroke="#FF5722" stroke-width="1.5"/>
</svg>
