<svg width="19" height="21" viewBox="0 0 19 21" fill="none" xmlns="http://www.w3.org/2000/svg">
<path d="M12.0868 11.1838H11.9196L11.7683 11.2548C11.1413 11.5489 10.4463 11.7151 9.71565 11.7151C8.98568 11.7151 8.29344 11.5492 7.66185 11.2543L7.51101 11.1838H7.34454H6.80136C3.95925 11.1838 1.67993 13.5331 1.67993 16.3963V17.7776C1.67993 19.057 2.70051 20.1213 3.99116 20.1213H15.4401C16.7308 20.1213 17.7514 19.057 17.7514 17.7776V16.3963C17.7514 13.5331 15.472 11.1838 12.6299 11.1838H12.0868ZM9.71565 11.6213C12.4439 11.6213 14.6289 9.36836 14.6289 6.62134C14.6289 3.87432 12.4439 1.62134 9.71565 1.62134C6.98738 1.62134 4.80238 3.87432 4.80238 6.62134C4.80238 9.36836 6.98738 11.6213 9.71565 11.6213Z" stroke="#68686E" stroke-width="1.5"/>
</svg>
