<svg width="15" height="15" viewBox="0 0 15 15" fill="none" xmlns="http://www.w3.org/2000/svg">
<path d="M8.30799 1.48148L9.55466 3.97482C9.72466 4.3219 10.178 4.65482 10.5605 4.71857L12.8201 5.09398C14.2651 5.33482 14.6051 6.38315 13.5638 7.41732L11.8072 9.17398C11.5097 9.47148 11.3467 10.0452 11.4388 10.4561L11.9417 12.6307C12.3384 14.3519 11.4247 15.0177 9.90174 14.1181L7.78383 12.8644C7.40133 12.6377 6.77091 12.6377 6.38133 12.8644L4.26341 14.1181C2.74758 15.0177 1.82674 14.3448 2.22341 12.6307L2.72633 10.4561C2.81841 10.0452 2.65549 9.47148 2.35799 9.17398L0.601327 7.41732C-0.43284 6.38315 -0.0999226 5.33482 1.34508 5.09398L3.60466 4.71857C3.98008 4.65482 4.43341 4.3219 4.60341 3.97482L5.85008 1.48148C6.53008 0.128568 7.63508 0.128568 8.30799 1.48148Z" fill="#FFCC00"/>
</svg>
