<svg width="24" height="24" viewBox="0 0 24 24" fill="none" xmlns="http://www.w3.org/2000/svg">
<path d="M13.8929 2.44503L15.9345 6.52823C16.2129 7.09663 16.9553 7.64183 17.5817 7.74623L21.2821 8.36103C23.6485 8.75543 24.2053 10.4722 22.5001 12.1658L19.6233 15.0426C19.1361 15.5298 18.8693 16.4694 19.0201 17.1422L19.8437 20.7034C20.4933 23.5222 18.9969 24.6126 16.5029 23.1394L13.0345 21.0862C12.4081 20.715 11.3757 20.715 10.7377 21.0862L7.26932 23.1394C4.78692 24.6126 3.27892 23.5106 3.92851 20.7034L4.75212 17.1422C4.90292 16.4694 4.63612 15.5298 4.14892 15.0426L1.27212 12.1658C-0.421485 10.4722 0.123715 8.75543 2.49012 8.36103L6.19052 7.74623C6.80532 7.64183 7.54771 7.09663 7.82611 6.52823L9.86772 2.44503C10.9813 0.229425 12.7909 0.229425 13.8929 2.44503Z" fill="#FF5722"/>
</svg>
