<svg width="50" height="49" viewBox="0 0 50 49" fill="none" xmlns="http://www.w3.org/2000/svg">
<ellipse cx="25" cy="24.5" rx="25" ry="24.5" fill="#FF5722"/>
<g clip-path="url(#clip0_294_7514)">
<path fill-rule="evenodd" clip-rule="evenodd" d="M23.5155 26.4554C24.0395 27.5259 25.6284 27.5653 26.1313 26.4616C25.994 26.3249 25.8926 26.18 25.7911 26.0351C25.7742 26.0123 25.7573 25.9874 25.7404 25.9647C25.4974 26.1531 25.2037 26.2732 24.8213 26.2732C24.4072 26.2711 24.0966 26.1179 23.8409 25.888C23.8261 25.8735 23.8113 25.8611 23.7965 25.8466C23.7606 25.946 23.7141 26.0661 23.6634 26.1759C23.6169 26.2815 23.5662 26.3829 23.5155 26.4554ZM36.4065 19.7692V28.4847H37.4672C37.6405 28.4847 37.7842 28.6234 37.7842 28.7932V36.6349C37.7842 36.8046 37.6426 36.9434 37.4672 36.9434H12.3148C12.1416 36.9434 12 36.8046 12 36.6349V28.7932C12 28.6234 12.1416 28.4847 12.3148 28.4847H13.3755V19.5083C13.2699 19.4296 13.1706 19.3447 13.0755 19.2536C12.562 18.7504 12.2451 18.0567 12.2451 17.2947V16.218V16.2035V16.2014C12.2451 16.1476 12.2578 16.0937 12.2852 16.0461L14.5102 12.1615C14.5693 12.058 14.6792 12 14.7912 12H35.2402C35.3691 12 35.4789 12.0725 35.5318 12.1781L37.9173 16.0358C37.9469 16.0813 37.9616 16.1331 37.9638 16.1828C37.9659 16.1931 37.9659 16.2035 37.9659 16.2159V17.2927C37.9659 18.0547 37.6468 18.7483 37.1355 19.2515C36.92 19.4607 36.677 19.6346 36.4065 19.7692ZM33.9386 28.4847V19.8065C33.6386 19.6677 33.366 19.4793 33.1357 19.2536C32.9329 19.0548 32.7617 18.827 32.6265 18.5765C32.4934 18.827 32.3201 19.0548 32.1173 19.2536C31.6038 19.7568 30.896 20.0674 30.1184 20.0674C29.3409 20.0674 28.633 19.7547 28.1196 19.2536C27.9167 19.0548 27.7456 18.827 27.6104 18.5765C27.4773 18.827 27.304 19.0548 27.1012 19.2536C26.5877 19.7568 25.8799 20.0674 25.1023 20.0674C24.3248 20.0674 23.6169 19.7547 23.1035 19.2536C22.9006 19.0548 22.7295 18.827 22.5943 18.5765C22.4611 18.827 22.2879 19.0548 22.085 19.2536C21.5716 19.7568 20.8638 20.0674 20.0862 20.0674C19.3086 20.0674 18.6008 19.7547 18.0874 19.2536C17.8845 19.0548 17.7134 18.827 17.5782 18.5765C17.445 18.827 17.2718 19.0548 17.0689 19.2536C16.7309 19.5849 16.3104 19.8334 15.8392 19.9638V28.4867H20.0609C20.101 28.1078 20.3207 27.6709 20.4602 27.4887C20.587 27.3251 20.7433 27.205 20.9166 27.1097C21.4385 26.8261 22.7929 26.7308 23.3549 26.3457C23.3972 26.2856 23.4415 26.1966 23.4838 26.1013C23.5493 25.9564 23.6064 25.799 23.6444 25.6913C23.4859 25.5091 23.3528 25.3041 23.2239 25.1032L22.7971 24.4386C22.6407 24.2108 22.5605 24.0016 22.5562 23.8319C22.5541 23.7511 22.5668 23.6786 22.5985 23.6144C22.6302 23.5482 22.6788 23.4902 22.7443 23.4467C22.776 23.426 22.8098 23.4094 22.8478 23.3949C22.8203 23.0346 22.8098 22.5812 22.8267 22.2002C22.8351 22.109 22.8542 22.02 22.8795 21.9289C22.9894 21.5479 23.2619 21.2414 23.6 21.0302C23.786 20.9143 23.9909 20.8252 24.2043 20.7672C24.3395 20.73 24.1853 20.4318 24.3248 20.4173C25.0009 20.349 26.0003 20.8294 26.4736 21.3305C26.7103 21.581 26.8582 21.9144 26.8899 22.3534L26.8624 23.4384C26.9807 23.4736 27.0568 23.5461 27.0864 23.6662C27.1202 23.7987 27.0843 23.983 26.9702 24.2377C26.968 24.2418 26.9659 24.246 26.9638 24.2522L26.4778 25.037C26.3004 25.3248 26.1186 25.6147 25.882 25.8425C25.9031 25.8715 25.9242 25.9025 25.9454 25.9336C26.0426 26.0723 26.1377 26.2111 26.2623 26.3332C26.2665 26.3374 26.2708 26.3415 26.2729 26.3457C26.8328 26.7329 28.1935 26.8261 28.7154 27.1118C28.8887 27.2071 29.0451 27.3272 29.1718 27.4907C29.3134 27.673 29.531 28.1099 29.5712 28.4888H33.9386V28.4847ZM13.1072 15.9012H17.3267L18.1022 12.6316H14.9792L13.1072 15.9012ZM27.5787 12.6316L27.902 15.9012H32.2081L31.327 12.6316H27.5787ZM27.2554 15.9012L26.9342 12.6316H23.2662L22.9492 15.9012H27.2554ZM22.3048 15.9012L22.6217 12.6316H18.7635L17.9881 15.9012H22.3048ZM31.9926 12.6316L32.8737 15.9012H37.0806L35.0585 12.6316H31.9926ZM32.9498 16.5327V17.2927C32.9498 17.8807 33.1949 18.417 33.5921 18.8042C33.9872 19.1915 34.5345 19.4337 35.1345 19.4337C35.7346 19.4337 36.2819 19.1935 36.677 18.8042C37.0721 18.417 37.3193 17.8807 37.3193 17.2927V16.5327H32.9498ZM27.9337 16.5327V17.2927C27.9337 17.8807 28.1788 18.417 28.576 18.8042C28.9711 19.1915 29.5184 19.4337 30.1184 19.4337C30.7185 19.4337 31.2658 19.1935 31.6609 18.8042C32.056 18.417 32.3032 17.8807 32.3032 17.2927V16.5327H27.9337ZM22.9197 16.5327V17.2927C22.9197 17.8807 23.1648 18.417 23.562 18.8042C23.9571 19.1915 24.5044 19.4337 25.1044 19.4337C25.7045 19.4337 26.2518 19.1935 26.6469 18.8042C27.042 18.417 27.2892 17.8807 27.2892 17.2927V16.5327H22.9197ZM17.9057 16.5327V17.2927C17.9057 17.8807 18.1508 18.417 18.548 18.8042C18.9431 19.1915 19.4904 19.4337 20.0904 19.4337C20.6905 19.4337 21.2378 19.1935 21.6329 18.8042C22.028 18.417 22.2752 17.8807 22.2752 17.2927V16.5327H17.9057ZM17.2591 16.5327H12.8895V17.2927C12.8895 17.8807 13.1346 18.417 13.5319 18.8042C13.927 19.1915 14.4742 19.4337 15.0743 19.4337C15.6744 19.4337 16.2216 19.1935 16.6168 18.8042C17.0119 18.417 17.2591 17.8807 17.2591 17.2927V16.5327ZM22.2034 28.4847H27.5237L27.6674 26.9151C27.2279 26.8302 26.7631 26.766 26.275 26.4906C25.975 27.7848 23.936 27.9691 23.3486 26.5258C22.9112 26.7412 22.4865 26.8654 21.9794 26.942L22.2034 28.4847ZM13.4938 29.7809H36.2861C36.3875 29.7809 36.472 29.8637 36.472 29.9631V35.4691C36.472 35.5685 36.3875 35.6513 36.2861 35.6513H13.4938C13.3924 35.6513 13.3079 35.5705 13.3079 35.4691V29.9631C13.31 29.8617 13.3924 29.7809 13.4938 29.7809ZM23.0971 23.5875C23.0021 23.5917 22.9302 23.6103 22.8816 23.6434C22.8542 23.6621 22.833 23.6848 22.8203 23.7138C22.8056 23.7449 22.7992 23.7822 22.7992 23.8256C22.8034 23.952 22.8711 24.1197 23.0021 24.3102L23.0042 24.3122L23.431 24.9769C23.6021 25.2441 23.7817 25.5153 24.0036 25.7141C24.217 25.9067 24.4769 26.0351 24.8213 26.0371C25.1932 26.0371 25.4657 25.9025 25.6855 25.6996C25.9158 25.4884 26.0954 25.2006 26.275 24.9127L26.7546 24.1383C26.8434 23.9375 26.8772 23.8049 26.8561 23.7262C26.8434 23.6786 26.7906 23.6558 26.7018 23.6517C26.6828 23.6517 26.6638 23.6496 26.6426 23.6517C26.6215 23.6517 26.5983 23.6538 26.575 23.6558C26.5624 23.6579 26.5497 23.6558 26.537 23.6538C26.4947 23.6558 26.4504 23.6538 26.406 23.6476L26.5708 22.9352C25.3516 23.1237 24.4389 22.2354 23.1479 22.7572L23.2408 23.5979C23.1922 23.5958 23.1436 23.5937 23.0971 23.5875Z" fill="white"/>
</g>
<defs>
<clipPath id="clip0_294_7514">
<rect width="25.9638" height="24.9455" fill="white" transform="translate(12 12)"/>
</clipPath>
</defs>
</svg>
