<svg width="44" height="45" viewBox="0 0 44 45" fill="none" xmlns="http://www.w3.org/2000/svg">
<g clip-path="url(#clip0_1_5677)">
<rect y="0.5" width="44" height="44" rx="22" fill="white"/>
<path d="M13.6308 28.3914C12.9 28.6214 12.4902 29.4074 12.7201 30.1382C12.95 30.869 13.736 31.2788 14.4668 31.0489C15.1976 30.819 15.6074 30.033 15.3775 29.3022C15.1476 28.5714 14.3616 28.1615 13.6308 28.3914ZM12.7948 25.734C15.0005 25.0401 17.3411 26.2605 18.035 28.4661C18.7289 30.6718 17.5085 33.0125 15.3028 33.7064C13.0971 34.4002 10.7565 33.1799 10.0626 30.9742C9.36873 28.7685 10.5891 26.4279 12.7948 25.734ZM21.8273 12.6708L28.4709 10.5808L29.3069 13.2383L22.6633 15.3283L21.8273 12.6708ZM12.1082 14.2682L16.0943 13.0141L16.9304 15.6716L12.9442 16.9256L14.0519 20.4467L20.5208 24.7637L25.1713 23.3007L23.0813 16.657L28.3962 14.985C31.3327 14.0612 34.4593 15.6914 35.3831 18.6279L36.6371 22.614L33.9797 23.4501C34.6736 25.6557 33.4532 27.9964 31.2475 28.6903C29.0419 29.3842 26.7012 28.1638 26.0073 25.9581L20.0281 27.8391L11.6871 22.2129L10.2867 17.7616C10.065 17.0568 10.1323 16.2928 10.4739 15.6377C10.8155 14.9825 11.4034 14.4899 12.1082 14.2682ZM30.4115 26.0328C31.1423 25.8029 31.5521 25.0169 31.3222 24.2861L28.6648 25.1221C28.8947 25.8529 29.6807 26.2627 30.4115 26.0328Z" fill="#FF5722"/>
</g>
<rect x="1" y="1.5" width="42" height="42" rx="21" stroke="#FF5722" stroke-width="2"/>
<defs>
<clipPath id="clip0_1_5677">
<rect y="0.5" width="44" height="44" rx="22" fill="white"/>
</clipPath>
</defs>
</svg>
