<svg width="22" height="22" viewBox="0 0 22 22" fill="none" xmlns="http://www.w3.org/2000/svg">
<path d="M2.55811 8.17187V5.98437C2.55811 3.80562 4.31686 2.04688 6.4956 2.04688H8.6831M13.9331 2.04688H16.1206C18.2994 2.04688 20.0581 3.80562 20.0581 5.98437V8.17187M20.0581 14.2969V15.6094C20.0581 17.7881 18.2994 19.5469 16.1206 19.5469H14.8081M8.6831 19.5469H6.4956C4.31686 19.5469 2.55811 17.7881 2.55811 15.6094V13.4219M9.9956 6.42187V8.17187C9.9956 9.04687 9.5581 9.48437 8.6831 9.48437H6.9331C6.0581 9.48437 5.62061 9.04687 5.62061 8.17187V6.42187C5.62061 5.54687 6.0581 5.10937 6.9331 5.10937H8.6831C9.5581 5.10937 9.9956 5.54687 9.9956 6.42187ZM16.9956 6.42187V8.17187C16.9956 9.04687 16.5581 9.48437 15.6831 9.48437H13.9331C13.0581 9.48437 12.6206 9.04687 12.6206 8.17187V6.42187C12.6206 5.54687 13.0581 5.10937 13.9331 5.10937H15.6831C16.5581 5.10937 16.9956 5.54687 16.9956 6.42187ZM9.9956 13.4219V15.1719C9.9956 16.0469 9.5581 16.4844 8.6831 16.4844H6.9331C6.0581 16.4844 5.62061 16.0469 5.62061 15.1719V13.4219C5.62061 12.5469 6.0581 12.1094 6.9331 12.1094H8.6831C9.5581 12.1094 9.9956 12.5469 9.9956 13.4219ZM16.9956 13.4219V15.1719C16.9956 16.0469 16.5581 16.4844 15.6831 16.4844H13.9331C13.0581 16.4844 12.6206 16.0469 12.6206 15.1719V13.4219C12.6206 12.5469 13.0581 12.1094 13.9331 12.1094H15.6831C16.5581 12.1094 16.9956 12.5469 16.9956 13.4219Z" stroke="#0A212B" stroke-width="1.5" stroke-linecap="round" stroke-linejoin="round"/>
</svg>
