<svg width="17" height="17" viewBox="0 0 17 17" fill="none" xmlns="http://www.w3.org/2000/svg">
<path d="M16 16.168L12.9118 13.0797M7.28676 13.7415C8.11235 13.7415 8.92986 13.5789 9.69261 13.2629C10.4554 12.947 11.1484 12.4839 11.7322 11.9001C12.316 11.3164 12.779 10.6233 13.095 9.86057C13.4109 9.09783 13.5735 8.28032 13.5735 7.45473C13.5735 6.62914 13.4109 5.81164 13.095 5.04889C12.779 4.28615 12.316 3.5931 11.7322 3.00932C11.1484 2.42554 10.4554 1.96246 9.69261 1.64652C8.92986 1.33058 8.11235 1.16797 7.28676 1.16797C5.61941 1.16797 4.02035 1.83032 2.84135 3.00932C1.66235 4.18832 1 5.78738 1 7.45473C1 9.12209 1.66235 10.7212 2.84135 11.9001C4.02035 13.0791 5.61941 13.7415 7.28676 13.7415Z" stroke="#FF5722" stroke-width="1.5" stroke-linecap="round" stroke-linejoin="round"/>
</svg>
