<svg width="23" height="23" viewBox="0 0 23 23" fill="none" xmlns="http://www.w3.org/2000/svg">
<path d="M21.8837 21.4142L17.103 16.6181M9.68945 17.4931C10.7776 17.4931 11.855 17.2781 12.8603 16.8603C13.8656 16.4426 14.779 15.8303 15.5484 15.0584C16.3178 14.2865 16.9281 13.3702 17.3445 12.3616C17.7609 11.3531 17.9752 10.2722 17.9752 9.18057C17.9752 8.08895 17.7609 7.00802 17.3445 5.9995C16.9281 4.99098 16.3178 4.07461 15.5484 3.30272C14.779 2.53083 13.8656 1.91854 12.8603 1.5008C11.855 1.08305 10.7776 0.868042 9.68945 0.868042C7.49193 0.868042 5.38441 1.74382 3.83053 3.30272C2.27665 4.86162 1.40369 6.97595 1.40369 9.18057C1.40369 11.3852 2.27665 13.4995 3.83053 15.0584C5.38441 16.6173 7.49193 17.4931 9.68945 17.4931Z" stroke="white" stroke-width="1.5" stroke-linecap="round" stroke-linejoin="round"/>
</svg>
