<svg width="20" height="21" viewBox="0 0 20 21" fill="none" xmlns="http://www.w3.org/2000/svg">
<path fill-rule="evenodd" clip-rule="evenodd" d="M9 2.85254C5.13401 2.85254 2 5.98655 2 9.85254C2 13.7185 5.13401 16.8525 9 16.8525C10.8859 16.8525 12.5977 16.1067 13.8564 14.8939C13.8827 14.8597 13.9115 14.8268 13.9429 14.7954C13.9742 14.7641 14.0072 14.7352 14.0414 14.7089C15.2542 13.4502 16 11.7385 16 9.85254C16 5.98655 12.866 2.85254 9 2.85254ZM16.0319 15.4702C17.2635 13.9306 18 11.9776 18 9.85254C18 4.88198 13.9706 0.852539 9 0.852539C4.02944 0.852539 0 4.88198 0 9.85254C0 14.8231 4.02944 18.8525 9 18.8525C11.125 18.8525 13.078 18.1161 14.6177 16.8844L18.2929 20.5596C18.6834 20.9502 19.3166 20.9502 19.7071 20.5596C20.0976 20.1691 20.0976 19.536 19.7071 19.1454L16.0319 15.4702Z" fill="#A9ABBF"/>
</svg>
