<svg width="37" height="38" viewBox="0 0 37 38" fill="none" xmlns="http://www.w3.org/2000/svg">
<path d="M26 26.168L22.9118 23.0797M17.2868 23.7415C18.1124 23.7415 18.9299 23.5789 19.6926 23.2629C20.4554 22.947 21.1484 22.4839 21.7322 21.9001C22.316 21.3164 22.779 20.6233 23.095 19.8606C23.4109 19.0978 23.5735 18.2803 23.5735 17.4547C23.5735 16.6291 23.4109 15.8116 23.095 15.0489C22.779 14.2861 22.316 13.5931 21.7322 13.0093C21.1484 12.4255 20.4554 11.9625 19.6926 11.6465C18.9299 11.3306 18.1124 11.168 17.2868 11.168C15.6194 11.168 14.0203 11.8303 12.8414 13.0093C11.6624 14.1883 11 15.7874 11 17.4547C11 19.1221 11.6624 20.7212 12.8414 21.9001C14.0203 23.0791 15.6194 23.7415 17.2868 23.7415Z" stroke="#757575" stroke-width="1.5" stroke-linecap="round" stroke-linejoin="round"/>
</svg>
