<svg width="37" height="37" viewBox="0 0 37 37" fill="none" xmlns="http://www.w3.org/2000/svg">
<path d="M35.8369 0.88176C35.4473 0.494943 34.9587 0.223011 34.4246 0.0958517C33.8905 -0.0313076 33.3317 -0.00877252 32.8097 0.16098L2.68105 10.2107C2.12228 10.3878 1.62852 10.7264 1.26212 11.184C0.895718 11.6415 0.673119 12.1973 0.622437 12.7813C0.571754 13.3652 0.69526 13.9511 0.977357 14.4649C1.25945 14.9787 1.68749 15.3974 2.2074 15.668L14.7078 21.8462L20.8859 34.3877C21.1342 34.8786 21.5142 35.2908 21.9834 35.5781C22.4525 35.8654 22.9923 36.0166 23.5425 36.0146H23.7484C24.3376 35.9712 24.9001 35.7516 25.3628 35.3844C25.8256 35.0171 26.1672 34.5192 26.3432 33.9553L36.5371 3.90904C36.7191 3.38993 36.75 2.82981 36.626 2.29386C36.502 1.75792 36.2284 1.26822 35.8369 0.88176ZM3.95786 13.0526L30.256 4.27972L15.6551 18.8807L3.95786 13.0526ZM23.6866 32.7608L17.838 21.0636L32.439 6.46266L23.6866 32.7608Z" fill="white"/>
</svg>
