<svg width="22" height="19" viewBox="0 0 22 19" fill="none" xmlns="http://www.w3.org/2000/svg">
<path d="M19.6213 7.1435L4.92683 0.635912C4.34692 0.380265 3.69209 0.289253 3.05164 0.375284C2.41119 0.461316 1.81629 0.720204 1.34803 1.11665C0.879771 1.5131 0.560953 2.02781 0.435043 2.59062C0.309132 3.15342 0.382257 3.73692 0.644446 4.26157L3.1635 9.25382C3.22065 9.37452 3.25009 9.50409 3.25009 9.63498C3.25009 9.76586 3.22065 9.89544 3.1635 10.0161L0.644446 15.0084C0.431062 15.433 0.340854 15.8981 0.382021 16.3614C0.423188 16.8247 0.594424 17.2716 0.880168 17.6614C1.16591 18.0511 1.5571 18.3715 2.01819 18.5933C2.47928 18.8152 2.99565 18.9314 3.52036 18.9315C4.01182 18.9272 4.49596 18.8255 4.93733 18.634L19.6318 12.1265C20.153 11.8942 20.5911 11.5383 20.8973 11.0983C21.2034 10.6584 21.3655 10.1518 21.3655 9.63498C21.3655 9.11819 21.2034 8.61157 20.8973 8.17163C20.5911 7.73169 20.153 7.37574 19.6318 7.1435H19.6213ZM18.6871 10.4624L3.99268 16.97C3.79973 17.052 3.58306 17.0799 3.37172 17.0498C3.16039 17.0197 2.9645 16.9331 2.81032 16.8016C2.65613 16.6701 2.55103 16.4999 2.5091 16.314C2.46717 16.1281 2.49041 15.9353 2.57572 15.7614L5.08427 10.7692C5.11674 10.7025 5.14478 10.6342 5.16824 10.5646H12.4C12.6784 10.5646 12.9454 10.4667 13.1422 10.2923C13.339 10.118 13.4496 9.88154 13.4496 9.63498C13.4496 9.38842 13.339 9.15196 13.1422 8.97761C12.9454 8.80327 12.6784 8.70532 12.4 8.70532H5.16824C5.14478 8.63575 5.11674 8.56746 5.08427 8.5008L2.57572 3.50855C2.49041 3.33467 2.46717 3.14184 2.5091 2.95593C2.55103 2.77002 2.65613 2.59991 2.81032 2.4684C2.9645 2.3369 3.16039 2.25029 3.37172 2.22019C3.58306 2.19009 3.79973 2.21793 3.99268 2.3L18.6871 8.80758C18.8591 8.8856 19.0034 9.00413 19.1041 9.15011C19.2049 9.2961 19.2582 9.46388 19.2582 9.63498C19.2582 9.80608 19.2049 9.97386 19.1041 10.1198C19.0034 10.2658 18.8591 10.3844 18.6871 10.4624Z" fill="#FEFEFE"/>
</svg>
