<svg width="22" height="22" viewBox="0 0 22 22" fill="none" xmlns="http://www.w3.org/2000/svg">
<path d="M10.9955 14.0193C11.7963 14.0193 12.5643 13.7012 13.1305 13.1349C13.6968 12.5687 14.0149 11.8007 14.0149 10.9999C14.0149 10.1991 13.6968 9.43109 13.1305 8.86484C12.5643 8.29858 11.7963 7.98047 10.9955 7.98047C10.1947 7.98047 9.42669 8.29858 8.86044 8.86484C8.29419 9.43109 7.97607 10.1991 7.97607 10.9999C7.97607 11.8007 8.29419 12.5687 8.86044 13.1349C9.42669 13.7012 10.1947 14.0193 10.9955 14.0193Z" stroke="#68686E" stroke-width="1.5" stroke-miterlimit="10" stroke-linecap="round" stroke-linejoin="round"/>
<path d="M0.930664 11.8857V10.1143C0.930664 9.06757 1.78617 8.20201 2.84296 8.20201C4.66468 8.20201 5.40947 6.91372 4.49358 5.33356C3.97021 4.42773 4.28222 3.25016 5.19811 2.72679L6.93931 1.73038C7.73442 1.25734 8.76102 1.53915 9.23407 2.33427L9.34478 2.5255C10.2506 4.10566 11.7402 4.10566 12.6561 2.5255L12.7668 2.33427C13.2398 1.53915 14.2664 1.25734 15.0615 1.73038L16.8027 2.72679C17.7186 3.25016 18.0306 4.42773 17.5073 5.33356C16.5914 6.91372 17.3362 8.20201 19.1579 8.20201C20.2046 8.20201 21.0702 9.05751 21.0702 10.1143V11.8857C21.0702 12.9324 20.2147 13.798 19.1579 13.798C17.3362 13.798 16.5914 15.0863 17.5073 16.6664C18.0306 17.5823 17.7186 18.7498 16.8027 19.2732L15.0615 20.2696C14.2664 20.7427 13.2398 20.4608 12.7668 19.6657L12.6561 19.4745C11.7502 17.8943 10.2607 17.8943 9.34478 19.4745L9.23407 19.6657C8.76102 20.4608 7.73442 20.7427 6.93931 20.2696L5.19811 19.2732C4.75939 19.0206 4.43881 18.6042 4.30672 18.1155C4.17464 17.6268 4.24184 17.1057 4.49358 16.6664C5.40947 15.0863 4.66468 13.798 2.84296 13.798C1.78617 13.798 0.930664 12.9324 0.930664 11.8857Z" stroke="#68686E" stroke-width="1.5" stroke-miterlimit="10" stroke-linecap="round" stroke-linejoin="round"/>
</svg>
