<svg width="19" height="18" viewBox="0 0 19 18" fill="none" xmlns="http://www.w3.org/2000/svg">
<path d="M16.3674 6.33247C14.7375 6.33247 14.0711 5.17979 14.8816 3.76596C15.3498 2.94648 15.0707 1.90187 14.2512 1.43359L12.6933 0.54207C11.9819 0.118821 11.0633 0.370969 10.6401 1.08239L10.541 1.25349C9.73054 2.66732 8.39776 2.66732 7.57828 1.25349L7.47922 1.08239C7.38214 0.91217 7.25218 0.762959 7.0969 0.643438C6.94162 0.523916 6.76412 0.436471 6.57473 0.386189C6.38534 0.335908 6.18784 0.323796 5.99372 0.350557C5.7996 0.377318 5.61275 0.442419 5.44403 0.54207L3.88611 1.43359C3.06663 1.90187 2.78747 2.95549 3.25574 3.77497C4.07522 5.17979 3.40883 6.33247 1.77888 6.33247C0.842326 6.33247 0.0678711 7.09792 0.0678711 8.04347V9.6284C0.0678711 10.565 0.83332 11.3394 1.77888 11.3394C3.40883 11.3394 4.07522 12.4921 3.25574 13.9059C2.78747 14.7254 3.06663 15.77 3.88611 16.2383L5.44403 17.1298C6.15544 17.5531 7.07398 17.3009 7.49723 16.5895L7.59629 16.4184C8.40676 15.0046 9.73955 15.0046 10.559 16.4184L10.6581 16.5895C11.0813 17.3009 11.9999 17.5531 12.7113 17.1298L14.2692 16.2383C15.0887 15.77 15.3678 14.7164 14.8996 13.9059C14.0801 12.4921 14.7465 11.3394 16.3764 11.3394C17.313 11.3394 18.0874 10.574 18.0874 9.6284V8.04347C18.0827 7.58959 17.8997 7.15577 17.5779 6.83566C17.2561 6.51554 16.8213 6.33481 16.3674 6.33247ZM9.07316 11.7627C7.46121 11.7627 6.14644 10.4479 6.14644 8.83594C6.14644 7.22399 7.46121 5.90922 9.07316 5.90922C10.6851 5.90922 11.9999 7.22399 11.9999 8.83594C11.9999 10.4479 10.6851 11.7627 9.07316 11.7627Z" fill="#FF5722"/>
</svg>
