<svg width="30" height="29" viewBox="0 0 30 29" fill="none" xmlns="http://www.w3.org/2000/svg">
<g filter="url(#filter0_d_294_6633)">
<path fill-rule="evenodd" clip-rule="evenodd" d="M15.1655 24.3426C21.3321 24.3426 26.331 19.3437 26.331 13.1771C26.331 7.01057 21.3321 2.0116 15.1655 2.0116C8.99897 2.0116 4 7.01057 4 13.1771C4 19.3437 8.99897 24.3426 15.1655 24.3426Z" fill="#FF5722"/>
<path fill-rule="evenodd" clip-rule="evenodd" d="M15.1655 24.3426C21.3321 24.3426 26.331 19.3437 26.331 13.1771C26.331 7.01057 21.3321 2.0116 15.1655 2.0116C8.99897 2.0116 4 7.01057 4 13.1771C4 19.3437 8.99897 24.3426 15.1655 24.3426Z" stroke="white" stroke-width="1.67188"/>
</g>
<path fill-rule="evenodd" clip-rule="evenodd" d="M15.1667 18.0735C17.8713 18.0735 20.0638 15.881 20.0638 13.1763C20.0638 10.4717 17.8713 8.27917 15.1667 8.27917C12.4621 8.27917 10.2695 10.4717 10.2695 13.1763C10.2695 15.881 12.4621 18.0735 15.1667 18.0735Z" fill="white"/>
<defs>
<filter id="filter0_d_294_6633" x="0.934886" y="0.0610709" width="28.4603" height="28.4613" filterUnits="userSpaceOnUse" color-interpolation-filters="sRGB">
<feFlood flood-opacity="0" result="BackgroundImageFix"/>
<feColorMatrix in="SourceAlpha" type="matrix" values="0 0 0 0 0 0 0 0 0 0 0 0 0 0 0 0 0 0 127 0" result="hardAlpha"/>
<feOffset dy="1.11459"/>
<feGaussianBlur stdDeviation="1.11459"/>
<feColorMatrix type="matrix" values="0 0 0 0 0 0 0 0 0 0 0 0 0 0 0 0 0 0 0.1 0"/>
<feBlend mode="normal" in2="BackgroundImageFix" result="effect1_dropShadow_294_6633"/>
<feBlend mode="normal" in="SourceGraphic" in2="effect1_dropShadow_294_6633" result="shape"/>
</filter>
</defs>
</svg>
