<svg width="28" height="28" viewBox="0 0 28 28" fill="none" xmlns="http://www.w3.org/2000/svg">
<path d="M10.2371 11.4913C10.9024 11.4913 11.5405 11.227 12.011 10.7566C12.4814 10.2861 12.7457 9.64804 12.7457 8.98271C12.7457 8.31739 12.4814 7.67932 12.011 7.20887C11.5405 6.73842 10.9024 6.47412 10.2371 6.47412C9.57179 6.47412 8.93372 6.73842 8.46327 7.20887C7.99281 7.67932 7.72852 8.31739 7.72852 8.98271C7.72852 9.64804 7.99281 10.2861 8.46327 10.7566C8.93372 11.227 9.57179 11.4913 10.2371 11.4913Z" stroke="#979797" stroke-width="1.5" stroke-linecap="round" stroke-linejoin="round"/>
<path d="M15.2543 1.45703H10.2371C3.96563 1.45703 1.45703 3.96563 1.45703 10.2371V17.7629C1.45703 24.0344 3.96563 26.543 10.2371 26.543H17.7629C24.0344 26.543 26.543 24.0344 26.543 17.7629V11.4914" stroke="#979797" stroke-width="1.5" stroke-linecap="round" stroke-linejoin="round"/>
<path d="M18.7036 5.21982H25.6022M22.1529 8.66914V1.77051" stroke="#979797" stroke-width="1.5" stroke-linecap="round"/>
<path d="M2.29731 22.7173L8.48099 18.5656C9.47189 17.9008 10.9018 17.9761 11.7923 18.7412L12.2063 19.1049C13.1846 19.9453 14.765 19.9453 15.7434 19.1049L20.9612 14.6271C21.9396 13.7867 23.52 13.7867 24.4984 14.6271L26.5429 16.3831" stroke="#979797" stroke-width="1.5" stroke-linecap="round" stroke-linejoin="round"/>
</svg>
