<svg width="30" height="22" viewBox="0 0 30 22" fill="none" xmlns="http://www.w3.org/2000/svg">
<path fill-rule="evenodd" clip-rule="evenodd" d="M2.96811 0.65625H19.4893C19.9552 0.65625 20.3328 1.04146 20.3328 1.51666V3.23747H25.1394C25.6667 3.23747 26.1302 3.59398 26.275 4.1111L27.7209 9.27322C27.8906 9.30365 28.0483 9.38644 28.1716 9.51223L29.3646 10.729C29.5228 10.8904 29.6117 11.1093 29.6117 11.3375V17.004C29.6117 17.479 29.2339 17.8643 28.7682 17.8643H26.2376C26.2376 19.7651 24.7269 21.3059 22.8634 21.3059C20.9999 21.3059 19.4893 19.7651 19.4893 17.8643H11.054C11.054 19.7651 9.54336 21.3059 7.67988 21.3059C5.81641 21.3059 4.30576 19.7651 4.30576 17.8643H1.77518C1.3093 17.8643 0.931641 17.479 0.931641 17.004V2.73345C0.931641 2.50526 1.02051 2.28641 1.1787 2.12505L2.37164 0.908256C2.52983 0.746893 2.74439 0.65625 2.96811 0.65625ZM25.9633 9.26033L24.7582 4.95825H20.3333V8.39983C20.3333 8.87506 20.711 9.26033 21.1768 9.26033H25.9633ZM22.8639 16.144C23.7957 16.144 24.551 16.9146 24.551 17.8649C24.551 18.8153 23.7957 19.5857 22.8639 19.5857C21.9322 19.5857 21.1768 18.8153 21.1768 17.8649C21.1768 16.9146 21.9322 16.144 22.8639 16.144ZM5.99322 17.8649C5.99322 18.8153 6.74855 19.5857 7.68028 19.5857C8.61202 19.5857 9.36734 18.8153 9.36734 17.8649C9.36734 16.9146 8.61202 16.144 7.68028 16.144C6.74855 16.144 5.99322 16.9146 5.99322 17.8649Z" fill="#FF5722"/>
</svg>
