<svg width="21" height="18" viewBox="0 0 21 18" fill="none" xmlns="http://www.w3.org/2000/svg">
<path d="M20.5776 7.48143V9.54143C20.5776 10.0914 20.1376 10.5414 19.5776 10.5614H17.6176C16.5376 10.5614 15.5476 9.77143 15.4576 8.69143C15.3976 8.06143 15.6376 7.47143 16.0576 7.06143C16.4276 6.68143 16.9376 6.46143 17.4976 6.46143H19.5776C20.1376 6.48143 20.5776 6.93143 20.5776 7.48143Z" fill="#FF5722"/>
<path d="M19.0476 12.0615H17.6176C15.7176 12.0615 14.1176 10.6315 13.9576 8.81147C13.8676 7.77147 14.2476 6.73147 15.0076 5.99147C15.6476 5.33147 16.5376 4.96147 17.4976 4.96147H19.0476C19.3376 4.96147 19.5776 4.72147 19.5476 4.43147C19.3276 2.00147 17.7176 0.341475 15.3276 0.0614746C15.0876 0.0214746 14.8376 0.0114746 14.5776 0.0114746H5.57764C5.29764 0.0114746 5.02764 0.0314746 4.76764 0.0714746C2.21764 0.391475 0.577637 2.29147 0.577637 5.01147V12.0115C0.577637 14.7715 2.81764 17.0115 5.57764 17.0115H14.5776C17.3776 17.0115 19.3076 15.2615 19.5476 12.5915C19.5533 12.523 19.5444 12.4541 19.5217 12.3893C19.499 12.3244 19.4629 12.2651 19.4157 12.2151C19.3686 12.1651 19.3114 12.1256 19.248 12.0991C19.1846 12.0727 19.1163 12.0598 19.0476 12.0615ZM11.5776 6.26147H5.57764C5.16764 6.26147 4.82764 5.92147 4.82764 5.51147C4.82764 5.10147 5.16764 4.76147 5.57764 4.76147H11.5776C11.9876 4.76147 12.3276 5.10147 12.3276 5.51147C12.3276 5.92147 11.9876 6.26147 11.5776 6.26147Z" fill="#FF5722"/>
</svg>
