<svg width="26" height="22" viewBox="0 0 26 22" fill="none" xmlns="http://www.w3.org/2000/svg">
<path d="M14.4825 7.50781H7.51221M24.9378 9.79638V12.1895C24.9378 12.8284 24.4267 13.3512 23.7761 13.3744H21.4992C20.2445 13.3744 19.0944 12.4567 18.9899 11.202C18.9202 10.4702 19.199 9.78476 19.6869 9.30846C20.1167 8.86701 20.7092 8.61143 21.3598 8.61143H23.7761C24.4267 8.63467 24.9378 9.15744 24.9378 9.79638Z" stroke="#FF5722" stroke-width="1.5" stroke-linecap="round" stroke-linejoin="round"/>
<path d="M19.6868 9.3082C19.1989 9.7845 18.9201 10.4699 18.9898 11.2018C19.0944 12.4564 20.2445 13.3742 21.4991 13.3742H23.7761V15.0587C23.7761 18.5438 21.4526 20.8672 17.9675 20.8672H7.51215C4.02703 20.8672 1.70361 18.5438 1.70361 15.0587V6.9267C1.70361 3.76686 3.60881 1.55961 6.57117 1.18787C6.87321 1.1414 7.18687 1.11816 7.51215 1.11816H17.9675C18.2696 1.11816 18.56 1.12978 18.8388 1.17625C21.836 1.52476 23.7761 3.74362 23.7761 6.9267V8.61118H21.3597C20.7091 8.61118 20.1167 8.86675 19.6868 9.3082Z" stroke="#FF5722" stroke-width="1.5" stroke-linecap="round" stroke-linejoin="round"/>
</svg>
