<svg width="22" height="21" viewBox="0 0 22 21" fill="none" xmlns="http://www.w3.org/2000/svg">
<path d="M12.1831 7.875H6.93311M20.0581 9.59875V11.4012C20.0581 11.8825 19.6731 12.2762 19.1831 12.2937H17.4681C16.5231 12.2937 15.6569 11.6025 15.5781 10.6575C15.5256 10.1063 15.7356 9.59 16.1031 9.23125C16.4269 8.89875 16.8731 8.70625 17.3631 8.70625H19.1831C19.6731 8.72375 20.0581 9.1175 20.0581 9.59875Z" stroke="#0A212B" stroke-width="1.5" stroke-linecap="round" stroke-linejoin="round"/>
<path d="M16.1031 9.23125C15.7356 9.59 15.5256 10.1063 15.5781 10.6575C15.6569 11.6025 16.5231 12.2938 17.4681 12.2938H19.1831V13.5625C19.1831 16.1875 17.4331 17.9375 14.8081 17.9375H6.93311C4.30811 17.9375 2.55811 16.1875 2.55811 13.5625V7.4375C2.55811 5.0575 3.99311 3.395 6.22436 3.115C6.45186 3.08 6.68811 3.0625 6.93311 3.0625H14.8081C15.0356 3.0625 15.2544 3.07125 15.4644 3.10625C17.7219 3.36875 19.1831 5.04 19.1831 7.4375V8.70625H17.3631C16.8731 8.70625 16.4269 8.89875 16.1031 9.23125Z" stroke="#0A212B" stroke-width="1.5" stroke-linecap="round" stroke-linejoin="round"/>
</svg>
